<?xml version="1.0" encoding="utf-8"?>
<svg version="1.1" xmlns:xlink="http://www.w3.org/1999/xlink" width="14px" height="28px" xmlns="http://www.w3.org/2000/svg">
  <g transform="matrix(1 0 0 1 -240 -502 )">
    <path d="M 8.52677702044791 27.8110795454545  C 8.44044141512496 27.9370265151515  8.33820188250568 28  8.22005842259007 28  L 5.87536514118793 28  C 5.75722168127231 28  5.65498214865304 27.9403409090909  5.56864654333009 27.8210227272727  C 5.48231093800714 27.7017045454545  5.43914313534567 27.5492424242424  5.43914313534567 27.3636363636364  L 5.43914313534567 20.8011363636364  L 1.51314508276534 20.8011363636364  C 1.39500162284972 20.8011363636364  1.29276209023044 20.7414772727273  1.2064264849075 20.6221590909091  C 1.12009087958455 20.5028409090909  1.07692307692308 20.3503787878788  1.07692307692308 20.1647727272727  L 1.07692307692308 18.1164772727273  C 1.07692307692308 17.9441287878788  1.12009087958455 17.7949810606061  1.2064264849075 17.6690340909091  C 1.29276209023044 17.5430871212121  1.39500162284972 17.4801136363636  1.51314508276534 17.4801136363636  L 5.43914313534567 17.4801136363636  L 5.43914313534567 15.7897727272727  L 1.51314508276534 15.7897727272727  C 1.39500162284972 15.7897727272727  1.29276209023044 15.7301136363636  1.2064264849075 15.6107954545455  C 1.12009087958455 15.4914772727273  1.07692307692308 15.3390151515152  1.07692307692308 15.1534090909091  L 1.07692307692308 13.0852272727273  C 1.07692307692308 12.9128787878788  1.12009087958455 12.7637310606061  1.2064264849075 12.6377840909091  C 1.29276209023044 12.5118371212121  1.39500162284972 12.4488636363636  1.51314508276534 12.4488636363636  L 4.43037974683544 12.4488636363636  L 0.0545277507302824 0.954545454545454  C -0.0181759169100941 0.742424242424242  -0.0181759169100941 0.530303030303027  0.0545277507302824 0.318181818181818  C 0.145407335280753 0.106060606060606  0.272638753651412 0  0.436222005842259 0  L 3.08081791626095 0  C 3.25348912690685 0  3.38526452450503 0.119318181818182  3.4761441090555 0.357954545454546  L 6.40701071080818 8.80965909090909  C 6.57968192145407 9.31344696969697  6.83414475819539 10.1420454545455  7.17039922103213 11.2954545454545  C 7.2612788055826 10.9772727272727  7.39987017202207 10.5265151515151  7.58617332035054 9.94318181818182  C 7.772476468679 9.35984848484848  7.8974358974359 8.95549242424242  7.96105160662123 8.73011363636364  L 10.5647517039922 0.377840909090911  C 10.6374553716326 0.125946969696967  10.7692307692308 0  10.9600778967868 0  L 13.5637779941577 0  C 13.7182732878935 0  13.8409607270367 0.106060606060606  13.9318403115871 0.318181818181818  C 14.0136319376826 0.503787878787878  14.0181759169101 0.709280303030301  13.9454722492697 0.93465909090909  L 9.67867575462512 12.4488636363636  L 12.6095423563778 12.4488636363636  C 12.7276858162934 12.4488636363636  12.8299253489127 12.5118371212121  12.9162609542356 12.6377840909091  C 13.0025965595586 12.7637310606061  13.0457643622201 12.9128787878788  13.0457643622201 13.0852272727273  L 13.0457643622201 15.1534090909091  C 13.0457643622201 15.3390151515152  13.0025965595586 15.4914772727273  12.9162609542356 15.6107954545455  C 12.8299253489127 15.7301136363636  12.7276858162934 15.7897727272727  12.6095423563778 15.7897727272727  L 8.65628042843233 15.7897727272727  L 8.65628042843233 17.4801136363636  L 12.6095423563778 17.4801136363636  C 12.7276858162934 17.4801136363636  12.8299253489127 17.5430871212121  12.9162609542356 17.6690340909091  C 13.0025965595586 17.7949810606061  13.0457643622201 17.9441287878788  13.0457643622201 18.1164772727273  L 13.0457643622201 20.1647727272727  C 13.0457643622201 20.3503787878788  13.0025965595586 20.5028409090909  12.9162609542356 20.6221590909091  C 12.8299253489127 20.7414772727273  12.7276858162934 20.8011363636364  12.6095423563778 20.8011363636364  L 8.65628042843233 20.8011363636364  L 8.65628042843233 27.3636363636364  C 8.65628042843233 27.5359848484849  8.61311262577085 27.6851325757576  8.52677702044791 27.8110795454545  Z " fill-rule="nonzero" fill="#000000" stroke="none" transform="matrix(1 0 0 1 240 502 )" />
  </g>
</svg>