<?xml version="1.0" encoding="utf-8"?>
<svg version="1.1" xmlns:xlink="http://www.w3.org/1999/xlink" width="15px" height="28px" xmlns="http://www.w3.org/2000/svg">
  <g transform="matrix(1 0 0 1 -250 -402 )">
    <path d="M 9.13583252190847 27.8110795454545  C 9.04333008763389 27.9370265151515  8.93378773125609 28  8.80720545277507 28  L 6.29503407984421 28  C 6.16845180136319 28  6.0589094449854 27.9403409090909  5.96640701071081 27.8210227272727  C 5.87390457643622 27.7017045454545  5.82765335929893 27.5492424242424  5.82765335929893 27.3636363636364  L 5.82765335929893 20.8011363636364  L 1.62122687439143 20.8011363636364  C 1.49464459591042 20.8011363636364  1.38510223953262 20.7414772727273  1.29259980525803 20.6221590909091  C 1.20009737098345 20.5028409090909  1.15384615384615 20.3503787878788  1.15384615384615 20.1647727272727  L 1.15384615384615 18.1164772727273  C 1.15384615384615 17.9441287878788  1.20009737098345 17.7949810606061  1.29259980525803 17.6690340909091  C 1.38510223953262 17.5430871212121  1.49464459591042 17.4801136363636  1.62122687439143 17.4801136363636  L 5.82765335929893 17.4801136363636  L 5.82765335929893 15.7897727272727  L 1.62122687439143 15.7897727272727  C 1.49464459591042 15.7897727272727  1.38510223953262 15.7301136363636  1.29259980525803 15.6107954545455  C 1.20009737098345 15.4914772727273  1.15384615384615 15.3390151515152  1.15384615384615 15.1534090909091  L 1.15384615384615 13.0852272727273  C 1.15384615384615 12.9128787878788  1.20009737098345 12.7637310606061  1.29259980525803 12.6377840909091  C 1.38510223953262 12.5118371212121  1.49464459591042 12.4488636363636  1.62122687439143 12.4488636363636  L 4.74683544303798 12.4488636363636  L 0.0584225900681597 0.954545454545454  C -0.0194741966893866 0.742424242424242  -0.0194741966893866 0.530303030303027  0.0584225900681597 0.318181818181818  C 0.155793573515093 0.106060606060606  0.292112950340798 0  0.467380720545278 0  L 3.30087633885102 0  C 3.4858812074002 0  3.62706913339825 0.119318181818182  3.72444011684518 0.357954545454546  L 6.86465433300876 8.80965909090909  C 7.04965920155794 9.31344696969697  7.32229795520935 10.1420454545455  7.682570593963 11.2954545454545  C 7.77994157740993 10.9772727272727  7.9284323271665 10.5265151515151  8.12804284323272 9.94318181818182  C 8.32765335929893 9.35984848484848  8.46153846153846 8.95549242424242  8.52969814995132 8.73011363636364  L 11.3193768257059 0.377840909090911  C 11.3972736124635 0.125946969696967  11.5384615384615 0  11.7429406037001 0  L 14.5326192794547 0  C 14.6981499513145 0  14.8296007789679 0.106060606060606  14.9269717624148 0.318181818181818  C 15.014605647517 0.503787878787878  15.0194741966894 0.709280303030301  14.9415774099318 0.93465909090909  L 10.3700097370983 12.4488636363636  L 13.5102239532619 12.4488636363636  C 13.6368062317429 12.4488636363636  13.7463485881207 12.5118371212121  13.8388510223953 12.6377840909091  C 13.9313534566699 12.7637310606061  13.9776046738072 12.9128787878788  13.9776046738072 13.0852272727273  L 13.9776046738072 15.1534090909091  C 13.9776046738072 15.3390151515152  13.9313534566699 15.4914772727273  13.8388510223953 15.6107954545455  C 13.7463485881207 15.7301136363636  13.6368062317429 15.7897727272727  13.5102239532619 15.7897727272727  L 9.27458617332035 15.7897727272727  L 9.27458617332035 17.4801136363636  L 13.5102239532619 17.4801136363636  C 13.6368062317429 17.4801136363636  13.7463485881207 17.5430871212121  13.8388510223953 17.6690340909091  C 13.9313534566699 17.7949810606061  13.9776046738072 17.9441287878788  13.9776046738072 18.1164772727273  L 13.9776046738072 20.1647727272727  C 13.9776046738072 20.3503787878788  13.9313534566699 20.5028409090909  13.8388510223953 20.6221590909091  C 13.7463485881207 20.7414772727273  13.6368062317429 20.8011363636364  13.5102239532619 20.8011363636364  L 9.27458617332035 20.8011363636364  L 9.27458617332035 27.3636363636364  C 9.27458617332035 27.5359848484849  9.22833495618306 27.6851325757576  9.13583252190847 27.8110795454545  Z " fill-rule="nonzero" fill="#000000" stroke="none" transform="matrix(1 0 0 1 250 402 )" />
  </g>
</svg>