<?xml version="1.0" encoding="utf-8"?>
<svg version="1.1" xmlns:xlink="http://www.w3.org/1999/xlink" width="40px" height="40px" xmlns="http://www.w3.org/2000/svg">
  <g transform="matrix(1 0 0 1 -259 -390 )">
    <path d="M 27.9464285714286 35.1897321428571  C 30.4017857142857 33.8876488095238  32.4181547619048 32.1205357142857  33.9955357142857 29.8883928571429  C 33.6681547619048 27.5818452380952  33.0171130952381 25.6659226190476  32.0424107142857 24.140625  C 31.0677083333333 22.6153273809524  29.6949404761905 21.7336309523809  27.9241071428571 21.4955357142857  C 26.9270833333333 22.5967261904762  25.7403273809524 23.4561011904762  24.3638392857143 24.0736607142857  C 22.9873511904762 24.6912202380952  21.5327380952381 25  20 25  C 18.4672619047619 25  17.0126488095238 24.6912202380952  15.6361607142857 24.0736607142857  C 14.2596726190476 23.4561011904762  13.0729166666667 22.5967261904762  12.0758928571429 21.4955357142857  C 10.3050595238095 21.7336309523809  8.93229166666667 22.6153273809524  7.95758928571429 24.140625  C 6.98288690476191 25.6659226190476  6.33184523809524 27.5818452380952  6.00446428571429 29.8883928571429  C 7.58184523809524 32.1205357142857  9.59821428571429 33.8876488095238  12.0535714285714 35.1897321428571  C 14.5089285714286 36.4918154761905  17.1577380952381 37.1428571428571  20 37.1428571428571  C 22.8422619047619 37.1428571428571  25.4910714285714 36.4918154761905  27.9464285714286 35.1897321428571  Z M 26.0602678571429 20.3459821428571  C 27.734375 18.671875  28.5714285714286 16.6517857142857  28.5714285714286 14.2857142857143  C 28.5714285714286 11.9196428571429  27.734375 9.89955357142857  26.0602678571429 8.22544642857143  C 24.3861607142857 6.55133928571428  22.3660714285714 5.71428571428572  20 5.71428571428572  C 17.6339285714286 5.71428571428572  15.6138392857143 6.55133928571428  13.9397321428571 8.22544642857143  C 12.265625 9.89955357142857  11.4285714285714 11.9196428571429  11.4285714285714 14.2857142857143  C 11.4285714285714 16.6517857142857  12.265625 18.671875  13.9397321428571 20.3459821428571  C 15.6138392857143 22.0200892857143  17.6339285714286 22.8571428571429  20 22.8571428571429  C 22.3660714285714 22.8571428571429  24.3861607142857 22.0200892857143  26.0602678571429 20.3459821428571  Z M 38.4151785714286 12.2321428571429  C 39.4717261904762 14.7023809523809  40 17.2916666666667  40 20  C 40 22.7083333333333  39.4717261904762 25.2938988095238  38.4151785714286 27.7566964285714  C 37.358630952381 30.219494047619  35.9412202380952 32.3474702380952  34.1629464285714 34.140625  C 32.3846726190476 35.9337797619048  30.2604166666667 37.358630952381  27.7901785714286 38.4151785714286  C 25.3199404761905 39.4717261904762  22.7232142857143 40  20 40  C 17.2916666666667 40  14.702380952381 39.4717261904762  12.2321428571429 38.4151785714286  C 9.76190476190476 37.358630952381  7.63392857142857 35.9375  5.84821428571429 34.1517857142857  C 4.0625 32.3660714285714  2.64136904761905 30.2380952380952  1.58482142857143 27.7678571428571  C 0.528273809523809 25.297619047619  0 22.7083333333333  0 20  C 0 17.2916666666667  0.528273809523809 14.7023809523809  1.58482142857143 12.2321428571429  C 2.64136904761905 9.76190476190476  4.0625 7.63392857142857  5.84821428571429 5.84821428571428  C 7.63392857142857 4.0625  9.76190476190476 2.64136904761905  12.2321428571429 1.58482142857143  C 14.702380952381 0.528273809523809  17.2916666666667 0  20 0  C 22.7083333333333 0  25.2976190476191 0.528273809523809  27.7678571428571 1.58482142857143  C 30.2380952380952 2.64136904761905  32.3660714285714 4.0625  34.1517857142857 5.84821428571428  C 35.9375 7.63392857142857  37.358630952381 9.76190476190476  38.4151785714286 12.2321428571429  Z " fill-rule="nonzero" fill="#000000" stroke="none" transform="matrix(1 0 0 1 259 390 )" />
  </g>
</svg>