<?xml version="1.0" encoding="utf-8"?>
<svg version="1.1" xmlns:xlink="http://www.w3.org/1999/xlink" width="50px" height="50px" xmlns="http://www.w3.org/2000/svg">
  <g transform="matrix(1 0 0 1 -390 -250 )">
    <path d="M 34.9330357142857 43.9871651785714  C 38.0022321428571 42.3595610119048  40.522693452381 40.1506696428571  42.4944196428571 37.3604910714286  C 42.085193452381 34.477306547619  41.2713913690476 32.0824032738095  40.0530133928571 30.17578125  C 38.8346354166667 28.2691592261905  37.1186755952381 27.1670386904762  34.9051339285714 26.8694196428571  C 33.6588541666667 28.2459077380952  32.1754092261905 29.3201264880952  30.4547991071429 30.0920758928571  C 28.7341889880952 30.864025297619  26.9159226190476 31.25  25 31.25  C 23.0840773809524 31.25  21.2658110119048 30.864025297619  19.5452008928571 30.0920758928571  C 17.8245907738095 29.3201264880952  16.3411458333333 28.2459077380952  15.0948660714286 26.8694196428571  C 12.8813244047619 27.1670386904762  11.1653645833333 28.2691592261905  9.94698660714286 30.17578125  C 8.72860863095238 32.0824032738095  7.91480654761905 34.477306547619  7.50558035714286 37.3604910714286  C 9.47730654761905 40.1506696428571  11.9977678571429 42.3595610119048  15.0669642857143 43.9871651785714  C 18.1361607142857 45.6147693452381  21.4471726190476 46.4285714285714  25 46.4285714285714  C 28.5528273809524 46.4285714285714  31.8638392857143 45.6147693452381  34.9330357142857 43.9871651785714  Z M 32.5753348214286 25.4324776785714  C 34.66796875 23.33984375  35.7142857142857 20.8147321428571  35.7142857142857 17.8571428571429  C 35.7142857142857 14.8995535714286  34.66796875 12.3744419642857  32.5753348214286 10.2818080357143  C 30.4827008928571 8.18917410714285  27.9575892857143 7.14285714285715  25 7.14285714285715  C 22.0424107142857 7.14285714285715  19.5172991071429 8.18917410714285  17.4246651785714 10.2818080357143  C 15.33203125 12.3744419642857  14.2857142857143 14.8995535714286  14.2857142857143 17.8571428571429  C 14.2857142857143 20.8147321428571  15.33203125 23.33984375  17.4246651785714 25.4324776785714  C 19.5172991071429 27.5251116071429  22.0424107142857 28.5714285714286  25 28.5714285714286  C 27.9575892857143 28.5714285714286  30.4827008928571 27.5251116071429  32.5753348214286 25.4324776785714  Z M 48.0189732142857 15.2901785714286  C 49.3396577380952 18.3779761904762  50 21.6145833333333  50 25  C 50 28.3854166666667  49.3396577380952 31.6173735119048  48.0189732142857 34.6958705357143  C 46.6982886904762 37.7743675595238  44.9265252976191 40.434337797619  42.7036830357143 42.67578125  C 40.4808407738095 44.9172247023809  37.8255208333333 46.6982886904762  34.7377232142857 48.0189732142857  C 31.6499255952381 49.3396577380952  28.4040178571429 50  25 50  C 21.6145833333333 50  18.3779761904762 49.3396577380952  15.2901785714286 48.0189732142857  C 12.202380952381 46.6982886904762  9.54241071428571 44.921875  7.31026785714286 42.6897321428571  C 5.078125 40.4575892857143  3.30171130952381 37.797619047619  1.98102678571429 34.7098214285714  C 0.660342261904762 31.6220238095238  0 28.3854166666667  0 25  C 0 21.6145833333333  0.660342261904762 18.3779761904762  1.98102678571429 15.2901785714286  C 3.30171130952381 12.2023809523809  5.078125 9.54241071428572  7.31026785714286 7.31026785714286  C 9.54241071428571 5.078125  12.202380952381 3.30171130952381  15.2901785714286 1.98102678571428  C 18.3779761904762 0.660342261904762  21.6145833333333 0  25 0  C 28.3854166666667 0  31.6220238095238 0.660342261904762  34.7098214285714 1.98102678571428  C 37.7976190476191 3.30171130952381  40.4575892857143 5.078125  42.6897321428571 7.31026785714286  C 44.921875 9.54241071428572  46.6982886904762 12.2023809523809  48.0189732142857 15.2901785714286  Z " fill-rule="nonzero" fill="#000000" stroke="none" transform="matrix(1 0 0 1 390 250 )" />
  </g>
</svg>