<?xml version="1.0" encoding="utf-8"?>
<svg version="1.1" xmlns:xlink="http://www.w3.org/1999/xlink" width="35px" height="30px" xmlns="http://www.w3.org/2000/svg">
  <g transform="matrix(1 0 0 1 -370 -408 )">
    <path d="M 12.5 3  L 12.5 5  L 22.5 5  L 22.5 3  L 12.5 3  Z M 21.875 17  L 35 17  L 35 26.875  C 35 27.734375  34.6940104166667 28.4700520833333  34.08203125 29.08203125  C 33.4700520833333 29.6940104166667  32.734375 30  31.875 30  L 3.125 30  C 2.265625 30  1.52994791666667 29.6940104166667  0.91796875 29.08203125  C 0.305989583333333 28.4700520833333  0 27.734375  0 26.875  L 0 17  L 13.125 17  L 13.125 20.625  C 13.125 20.9635416666667  13.2486979166667 21.2565104166667  13.49609375 21.50390625  C 13.7434895833333 21.7513020833333  14.0364583333333 21.875  14.375 21.875  L 20.625 21.875  C 20.9635416666667 21.875  21.2565104166667 21.7513020833333  21.50390625 21.50390625  C 21.7513020833333 21.2565104166667  21.875 20.9635416666667  21.875 20.625  L 21.875 17  Z M 15 17.5  L 20 17.5  L 20 20  L 15 20  L 15 17.5  Z M 34.08203125 5.91796875  C 34.6940104166667 6.52994791666666  35 7.265625  35 8.125  L 35 15.625  L 0 15.625  L 0 8.125  C 0 7.265625  0.305989583333333 6.52994791666666  0.91796875 5.91796875  C 1.52994791666667 5.30598958333333  2.265625 5  3.125 5  L 10 5  L 10 1.875  C 10 1.35416666666667  10.1822916666667 0.911458333333329  10.546875 0.546874999999999  C 10.9114583333333 0.182291666666669  11.3541666666667 0  11.875 0  L 23.125 0  C 23.6458333333333 0  24.0885416666667 0.182291666666669  24.453125 0.546874999999999  C 24.8177083333333 0.911458333333329  25 1.35416666666667  25 1.875  L 25 5  L 31.875 5  C 32.734375 5  33.4700520833333 5.30598958333333  34.08203125 5.91796875  Z " fill-rule="nonzero" fill="#0000ff" stroke="none" transform="matrix(1 0 0 1 370 408 )" />
  </g>
</svg>