<?xml version="1.0" encoding="utf-8"?>
<svg version="1.1" xmlns:xlink="http://www.w3.org/1999/xlink" width="10px" height="20px" xmlns="http://www.w3.org/2000/svg">
  <g transform="matrix(1 0 0 1 -600 -485 )">
    <path d="M 6.09055501460565 19.8650568181818  C 6.02888672508926 19.9550189393939  5.95585848750406 20  5.87147030185005 20  L 4.1966893865628 20  C 4.1123012009088 20  4.0392729633236 19.9573863636364  3.97760467380721 19.8721590909091  C 3.91593638429082 19.7869318181818  3.88510223953262 19.6780303030303  3.88510223953262 19.5454545454545  L 3.88510223953262 14.8579545454545  L 1.08081791626095 14.8579545454545  C 0.996429730606946 14.8579545454545  0.923401493021746 14.8153409090909  0.861733203505355 14.7301136363636  C 0.800064913988965 14.6448863636364  0.769230769230769 14.5359848484848  0.769230769230769 14.4034090909091  L 0.769230769230769 12.9403409090909  C 0.769230769230769 12.8172348484848  0.800064913988965 12.7107007575758  0.861733203505355 12.6207386363636  C 0.923401493021746 12.5307765151515  0.996429730606946 12.4857954545455  1.08081791626095 12.4857954545455  L 3.88510223953262 12.4857954545455  L 3.88510223953262 11.2784090909091  L 1.08081791626095 11.2784090909091  C 0.996429730606946 11.2784090909091  0.923401493021746 11.2357954545455  0.861733203505355 11.1505681818182  C 0.800064913988965 11.0653409090909  0.769230769230769 10.9564393939394  0.769230769230769 10.8238636363636  L 0.769230769230769 9.34659090909091  C 0.769230769230769 9.22348484848485  0.800064913988965 9.11695075757576  0.861733203505355 9.02698863636363  C 0.923401493021746 8.93702651515151  0.996429730606946 8.89204545454545  1.08081791626095 8.89204545454545  L 3.16455696202532 8.89204545454545  L 0.0389483933787731 0.681818181818181  C -0.0129827977929244 0.53030303030303  -0.0129827977929244 0.378787878787876  0.0389483933787731 0.227272727272727  C 0.103862382343395 0.0757575757575757  0.194741966893866 0  0.311587147030185 0  L 2.20058422590068 0  C 2.32392080493346 0  2.41804608893217 0.0852272727272729  2.48296007789679 0.255681818181819  L 4.57643622200584 6.29261363636363  C 4.69977280103863 6.65246212121212  4.88153197013957 7.24431818181818  5.12171372930867 8.06818181818182  C 5.18662771827329 7.84090909090909  5.28562155144434 7.51893939393939  5.41869522882181 7.10227272727273  C 5.55176890619929 6.68560606060606  5.64102564102564 6.3967803030303  5.68646543330088 6.23579545454545  L 7.54625121713729 0.269886363636365  C 7.59818240830899 0.0899621212121193  7.69230769230769 0  7.8286270691334 0  L 9.68841285296982 0  C 9.79876663420967 0  9.88640051931191 0.0757575757575757  9.95131450827653 0.227272727272727  C 10.0097370983447 0.359848484848484  10.0129827977929 0.506628787878787  9.96105160662123 0.667613636363635  L 6.91333982473223 8.89204545454545  L 9.00681596884129 8.89204545454545  C 9.09120415449529 8.89204545454545  9.16423239208049 8.93702651515151  9.22590068159688 9.02698863636363  C 9.28756897111328 9.11695075757576  9.31840311587147 9.22348484848485  9.31840311587147 9.34659090909091  L 9.31840311587147 10.8238636363636  C 9.31840311587147 10.9564393939394  9.28756897111328 11.0653409090909  9.22590068159688 11.1505681818182  C 9.16423239208049 11.2357954545455  9.09120415449529 11.2784090909091  9.00681596884129 11.2784090909091  L 6.18305744888023 11.2784090909091  L 6.18305744888023 12.4857954545455  L 9.00681596884129 12.4857954545455  C 9.09120415449529 12.4857954545455  9.16423239208049 12.5307765151515  9.22590068159688 12.6207386363636  C 9.28756897111328 12.7107007575758  9.31840311587147 12.8172348484848  9.31840311587147 12.9403409090909  L 9.31840311587147 14.4034090909091  C 9.31840311587147 14.5359848484848  9.28756897111328 14.6448863636364  9.22590068159688 14.7301136363636  C 9.16423239208049 14.8153409090909  9.09120415449529 14.8579545454545  9.00681596884129 14.8579545454545  L 6.18305744888023 14.8579545454545  L 6.18305744888023 19.5454545454545  C 6.18305744888023 19.6685606060606  6.15222330412204 19.7750946969697  6.09055501460565 19.8650568181818  Z " fill-rule="nonzero" fill="#000000" stroke="none" transform="matrix(1 0 0 1 600 485 )" />
  </g>
</svg>