<?xml version="1.0" encoding="utf-8"?>
<svg version="1.1" xmlns:xlink="http://www.w3.org/1999/xlink" width="35px" height="27px" xmlns="http://www.w3.org/2000/svg">
  <g transform="matrix(1 0 0 1 -373 -667 )">
    <path d="M 20 22  L 20 24.5454545454545  L 32.5 24.5454545454545  L 32.5 22  L 20 22  Z M 12.5 12.2727272727273  L 12.5 14.7272727272727  L 32.5 14.7272727272727  L 32.5 12.2727272727273  L 12.5 12.2727272727273  Z M 25 2.45454545454546  L 25 4.90909090909091  L 32.5 4.90909090909091  L 32.5 2.45454545454546  L 25 2.45454545454546  Z M 34.62890625 20.0007102272727  C 34.8763020833333 20.2436079545455  35 20.53125  35 20.8636363636364  L 35 25.7727272727273  C 35 26.1051136363636  34.8763020833333 26.3927556818182  34.62890625 26.6356534090909  C 34.3815104166667 26.8785511363636  34.0885416666667 27  33.75 27  L 1.25 27  C 0.911458333333333 27  0.618489583333333 26.8785511363636  0.37109375 26.6356534090909  C 0.123697916666667 26.3927556818182  0 26.1051136363636  0 25.7727272727273  L 0 20.8636363636364  C 0 20.53125  0.123697916666667 20.2436079545455  0.37109375 20.0007102272727  C 0.618489583333333 19.7578125  0.911458333333333 19.6363636363636  1.25 19.6363636363636  L 33.75 19.6363636363636  C 34.0885416666667 19.6363636363636  34.3815104166667 19.7578125  34.62890625 20.0007102272727  Z M 34.62890625 10.1825284090909  C 34.8763020833333 10.4254261363636  35 10.7130681818182  35 11.0454545454545  L 35 15.9545454545455  C 35 16.2869318181818  34.8763020833333 16.5745738636364  34.62890625 16.8174715909091  C 34.3815104166667 17.0603693181818  34.0885416666667 17.1818181818182  33.75 17  L 1.25 17  C 0.911458333333333 17.1818181818182  0.618489583333333 17.0603693181818  0.37109375 16.8174715909091  C 0.123697916666667 16.5745738636364  0 16.2869318181818  0 15.9545454545455  L 0 11.0454545454545  C 0 10.7130681818182  0.123697916666667 10.4254261363636  0.37109375 10.1825284090909  C 0.618489583333333 9.93963068181818  0.911458333333333 9.81818181818182  1.25 10  L 33.75 10  C 34.0885416666667 9.81818181818182  34.3815104166667 9.93963068181818  34.62890625 10.1825284090909  Z M 34.62890625 0.364346590909092  C 34.8763020833333 0.607244318181814  35 0.894886363636362  35 1.22727272727273  L 35 6.13636363636364  C 35 6.46875  34.8763020833333 6.75639204545454  34.62890625 6.99928977272727  C 34.3815104166667 7.2421875  34.0885416666667 7.36363636363636  33.75 7.36363636363636  L 1.25 7.36363636363636  C 0.911458333333333 7.36363636363636  0.618489583333333 7.2421875  0.37109375 6.99928977272727  C 0.123697916666667 6.75639204545454  0 6.46875  0 6.13636363636364  L 0 1.22727272727273  C 0 0.894886363636362  0.123697916666667 0.607244318181814  0.37109375 0.364346590909092  C 0.618489583333333 0.121448863636361  0.911458333333333 0  1.25 0  L 33.75 0  C 34.0885416666667 0  34.3815104166667 0.121448863636361  34.62890625 0.364346590909092  Z " fill-rule="nonzero" fill="#02a7f0" stroke="none" transform="matrix(1 0 0 1 373 667 )" />
  </g>
</svg>