<?xml version="1.0" encoding="utf-8"?>
<svg version="1.1" xmlns:xlink="http://www.w3.org/1999/xlink" width="35px" height="30px" xmlns="http://www.w3.org/2000/svg">
  <g transform="matrix(1 0 0 1 -373 -600 )">
    <path d="M 4.62890625 24.62890625  C 4.87630208333333 24.3815104166667  5 24.0885416666667  5 23.75  C 5 23.4114583333333  4.87630208333333 23.1184895833333  4.62890625 22.87109375  C 4.38151041666667 22.6236979166667  4.08854166666667 22.5  3.75 22.5  C 3.41145833333333 22.5  3.11848958333333 22.6236979166667  2.87109375 22.87109375  C 2.62369791666667 23.1184895833333  2.5 23.4114583333333  2.5 23.75  C 2.5 24.0885416666667  2.62369791666667 24.3815104166667  2.87109375 24.62890625  C 3.11848958333333 24.8763020833333  3.41145833333333 25  3.75 25  C 4.08854166666667 25  4.38151041666667 24.8763020833333  4.62890625 24.62890625  Z M 31.7578125 14.2578125  C 32.2526041666667 13.7630208333333  32.5 13.1770833333333  32.5 12.5  C 32.5 11.8359375  32.24609375 11.2532552083333  31.73828125 10.751953125  C 31.23046875 10.2506510416667  30.6510416666667 10  30 10  L 18.75 10  C 18.75 9.73958333333333  18.84765625 9.423828125  19.04296875 9.052734375  C 19.23828125 8.681640625  19.453125 8.32356770833333  19.6875 7.978515625  C 19.921875 7.63346354166667  20.13671875 7.19075520833333  20.33203125 6.650390625  C 20.52734375 6.11002604166667  20.625 5.55989583333333  20.625 5  C 20.625 4.12760416666666  20.3352864583333 3.49283854166667  19.755859375 3.095703125  C 19.1764322916667 2.69856770833333  18.4244791666667 2.5  17.5 2.5  C 17.1875 2.5  16.6015625 3.40494791666667  15.7421875 5.21484375  C 15.4296875 5.78776041666667  15.1888020833333 6.2109375  15.01953125 6.484375  C 14.4986979166667 7.31770833333333  13.76953125 8.26171875  12.83203125 9.31640625  C 11.9075520833333 10.37109375  11.25 11.0611979166667  10.859375 11.38671875  C 9.9609375 12.12890625  9.04947916666667 12.5  8.125 12.5  L 8 12.5  L 8 25  L 8.125 25  C 9.0625 25  10.1497395833333 25.2083333333333  11.38671875 25.625  C 12.6236979166667 26.0416666666667  13.8834635416667 26.4583333333333  15.166015625 26.875  C 16.4485677083333 27.2916666666667  17.6171875 27.5  18.671875 27.5  C 21.1328125 27.5  22.36328125 26.4127604166667  22.36328125 24.23828125  C 22.36328125 23.8997395833333  22.3307291666667 23.53515625  22.265625 23.14453125  C 22.65625 22.9361979166667  22.9654947916667 22.5944010416667  23.193359375 22.119140625  C 23.4212239583333 21.6438802083333  23.53515625 21.1653645833333  23.53515625 20.68359375  C 23.53515625 20.2018229166667  23.41796875 19.7526041666667  23.18359375 19.3359375  C 23.8736979166667 18.6848958333333  24.21875 17.91015625  24.21875 17.01171875  C 24.21875 16.6861979166667  24.1536458333333 16.3248697916667  24.0234375 15.927734375  C 23.8932291666667 15.5305989583333  23.73046875 15.2213541666667  23.53515625 15  L 30 15  C 30.6770833333333 15  31.2630208333333 14.7526041666667  31.7578125 14.2578125  Z M 33.515625 8.984375  C 34.5052083333333 9.97395833333333  35 11.1393229166667  35 12.48046875  C 35 13.84765625  34.5084635416667 15.0260416666667  33.525390625 16.015625  C 32.5423177083333 17.0052083333333  31.3671875 17.5  30 17.5  L 26.69921875 17.5  C 26.6471354166667 18.3072916666667  26.40625 19.08203125  25.9765625 19.82421875  C 26.015625 20.09765625  26.03515625 20.3776041666667  26.03515625 20.6640625  C 26.03515625 21.9791666666667  25.64453125 23.1380208333333  24.86328125 24.140625  C 24.8763020833333 25.9505208333333  24.3229166666667 27.3795572916667  23.203125 28.427734375  C 22.0833333333333 29.4759114583333  20.60546875 30  18.76953125 30  C 17.0377604166667 30  14.94140625 29.55078125  12.48046875 28.65234375  C 10.3450520833333 27.8841145833333  8.89322916666667 27.5  8.125 27.5  L 2.5 27.5  C 1.80989583333333 27.5  1.220703125 27.255859375  0.732421875 26.767578125  C 0.244140625 26.279296875  0 25.6901041666667  0 25  L 0 12.5  C 0 11.8098958333333  0.244140625 11.220703125  0.732421875 10.732421875  C 1.220703125 10.244140625  1.80989583333333 10  2.5 10  L 8.125 10  C 8.25520833333334 10  8.39518229166667 9.970703125  8.544921875 9.912109375  C 8.69466145833333 9.853515625  8.84765625 9.76236979166666  9.00390625 9.638671875  C 9.16015625 9.51497395833333  9.306640625 9.39778645833333  9.443359375 9.287109375  C 9.580078125 9.17643229166666  9.736328125 9.02994791666666  9.912109375 8.84765625  C 10.087890625 8.66536458333333  10.2213541666667 8.525390625  10.3125 8.427734375  C 10.4036458333333 8.330078125  10.52734375 8.19010416666667  10.68359375 8.0078125  C 10.83984375 7.82552083333333  10.9309895833333 7.71484375  10.95703125 7.67578125  C 11.8033854166667 6.71223958333333  12.4544270833333 5.87239583333333  12.91015625 5.15625  C 13.0794270833333 4.8828125  13.2942708333333 4.47916666666666  13.5546875 3.9453125  C 13.8151041666667 3.41145833333333  14.0559895833333 2.94270833333333  14.27734375 2.5390625  C 14.4986979166667 2.13541666666666  14.7623697916667 1.72526041666666  15.068359375 1.30859375  C 15.3743489583333 0.89192708333333  15.732421875 0.56966145833333  16.142578125 0.341796874999999  C 16.552734375 0.113932291666664  17.0052083333333 0  17.5 0  C 19.1276041666667 0  20.4720052083333 0.436197916666664  21.533203125 1.30859375  C 22.5944010416667 2.18098958333333  23.125 3.41145833333333  23.125 5  C 23.125 5.88541666666666  22.9817708333333 6.71875  22.6953125 7.5  L 30 7.5  C 31.3541666666667 7.5  32.5260416666667 7.99479166666666  33.515625 8.984375  Z " fill-rule="nonzero" fill="#78c004" stroke="none" fill-opacity="0.996078431372549" transform="matrix(1 0 0 1 373 600 )" />
  </g>
</svg>