<?xml version="1.0" encoding="utf-8"?>
<svg version="1.1" xmlns:xlink="http://www.w3.org/1999/xlink" width="10px" height="9px" xmlns="http://www.w3.org/2000/svg">
  <g transform="matrix(1 0 0 1 -635 -319 )">
    <path d="M 640 319  C 642.8 319  645 320.98  645 323.5  C 645 326.02  642.8 328  640 328  C 637.2 328  635 326.02  635 323.5  C 635 320.98  637.2 319  640 319  Z " fill-rule="nonzero" fill="#ffffff" stroke="none" />
    <path d="M 640 319.5  C 642.52 319.5  644.5 321.26  644.5 323.5  C 644.5 325.74  642.52 327.5  640 327.5  C 637.48 327.5  635.5 325.74  635.5 323.5  C 635.5 321.26  637.48 319.5  640 319.5  Z " stroke-width="1" stroke="#797979" fill="none" />
  </g>
</svg>