<?xml version="1.0" encoding="utf-8"?>
<svg version="1.1" xmlns:xlink="http://www.w3.org/1999/xlink" width="33px" height="30px" xmlns="http://www.w3.org/2000/svg">
  <g transform="matrix(1 0 0 1 -278 -488 )">
    <path d="M 32.6501116071429 9.95625  C 32.8833705357143 10.19375  33 10.475  33 10.8  C 33 11.125  32.8833705357143 11.40625  32.6501116071429 11.64375  L 23.2215401785714 21.24375  C 22.98828125 21.48125  22.7120535714286 21.6  22.3928571428571 21.6  C 22.0736607142857 21.6  21.7974330357143 21.48125  21.5641741071429 21.24375  C 21.3309151785714 21.00625  21.2142857142857 20.725  21.2142857142857 20.4  L 21.2142857142857 15.6  L 17.0892857142857 15.6  C 15.8861607142857 15.6  14.8088727678571 15.6375  13.857421875 15.7125  C 12.9059709821429 15.7875  11.9606584821429 15.921875  11.021484375 16.115625  C 10.0823102678571 16.309375  9.26590401785714 16.575  8.572265625 16.9125  C 7.87862723214286 17.25  7.23102678571429 17.684375  6.62946428571429 18.215625  C 6.02790178571429 18.746875  5.53683035714286 19.378125  5.15625 20.109375  C 4.77566964285714 20.840625  4.47795758928571 21.70625  4.26311383928571 22.70625  C 4.04827008928571 23.70625  3.94084821428571 24.8375  3.94084821428571 26.1  C 3.94084821428571 26.7875  3.97154017857143 27.55625  4.03292410714286 28.40625  C 4.03292410714286 28.48125  4.04827008928571 28.628125  4.07896205357143 28.846875  C 4.10965401785714 29.065625  4.125 29.23125  4.125 29.34375  C 4.125 29.53125  4.07282366071429 29.6875  3.96847098214286 29.8125  C 3.86411830357143 29.9375  3.71986607142857 30  3.53571428571429 30  C 3.33928571428571 30  3.16741071428571 29.89375  3.02008928571429 29.68125  C 2.93415178571429 29.56875  2.85435267857143 29.43125  2.78069196428571 29.26875  C 2.70703125 29.10625  2.62416294642857 28.91875  2.53208705357143 28.70625  C 2.44001116071429 28.49375  2.37555803571429 28.34375  2.33872767857143 28.25625  C 0.779575892857143 24.69375  0 21.875  0 19.8  C 0 17.3125  0.325334821428571 15.23125  0.976004464285714 13.55625  C 2.96484375 8.51875  8.3359375 6  17.0892857142857 6  L 21.2142857142857 6  L 21.2142857142857 1.2  C 21.2142857142857 0.874999999999997  21.3309151785714 0.593749999999996  21.5641741071429 0.356249999999999  C 21.7974330357143 0.118749999999999  22.0736607142857 0  22.3928571428571 0  C 22.7120535714286 0  22.98828125 0.118749999999999  23.2215401785714 0.356249999999999  L 32.6501116071429 9.95625  Z " fill-rule="nonzero" fill="#0000bf" stroke="none" transform="matrix(1 0 0 1 278 488 )" />
  </g>
</svg>