<?xml version="1.0" encoding="utf-8"?>
<svg version="1.1" xmlns:xlink="http://www.w3.org/1999/xlink" width="35px" height="28px" xmlns="http://www.w3.org/2000/svg">
  <g transform="matrix(1 0 0 1 -280 -647 )">
    <path d="M 2.91666666666667 0  L 32.0833333333333 0  C 32.8854166666667 0  33.5720486111111 0.285590277777775  34.1432291666667 0.856770833333334  C 34.7144097222222 1.42795138888889  35 2.11458333333333  35 2.91666666666667  L 35 25.0833333333333  C 35 25.8854166666667  34.7144097222222 26.5720486111111  34.1432291666667 27.1432291666667  C 33.5720486111111 27.7144097222222  32.8854166666667 28  32.0833333333333 28  L 2.91666666666667 28  C 2.11458333333333 28  1.42795138888889 27.7144097222222  0.856770833333333 27.1432291666667  C 0.285590277777778 26.5720486111111  0 25.8854166666667  0 25.0833333333333  L 0 2.91666666666667  C 0 2.11458333333333  0.285590277777778 1.42795138888889  0.856770833333333 0.856770833333334  C 1.42795138888889 0.285590277777775  2.11458333333333 0  2.91666666666667 0  Z M 32.0833333333333 2.33333333333333  L 2.91666666666667 2.33333333333333  C 2.75868055555556 2.33333333333333  2.62196180555556 2.39105902777778  2.50651041666667 2.50651041666667  C 2.39105902777778 2.62196180555555  2.33333333333333 2.75868055555555  2.33333333333333 2.91666666666667  L 2.33333333333333 7  L 32.6666666666667 7  L 32.6666666666667 2.91666666666667  C 32.6666666666667 2.75868055555555  32.6089409722222 2.62196180555555  32.4934895833333 2.50651041666667  C 32.3780381944445 2.39105902777778  32.2413194444445 2.33333333333333  32.0833333333333 2.33333333333333  Z M 2.91666666666667 25.6666666666667  L 32.0833333333333 25.6666666666667  C 32.2413194444445 25.6666666666667  32.3780381944445 25.6089409722222  32.4934895833333 25.4934895833333  C 32.6089409722222 25.3780381944444  32.6666666666667 25.2413194444444  32 25.0833333333333  L 32 14  L 3 14  L 3 25.0833333333333  C 2.33333333333333 25.2413194444444  2.39105902777778 25.3780381944444  2.50651041666667 25.4934895833333  C 2.62196180555556 25.6089409722222  2.75868055555556 25.6666666666667  2.91666666666667 25.6666666666667  Z M 9.33333333333333 23.3333333333333  L 4.66666666666667 23.3333333333333  L 4.66666666666667 21  L 9.33333333333333 21  L 9.33333333333333 23.3333333333333  Z M 18.6666666666667 23.3333333333333  L 11.6666666666667 23.3333333333333  L 11.6666666666667 21  L 18.6666666666667 21  L 18.6666666666667 23.3333333333333  Z " fill-rule="nonzero" fill="#027db4" stroke="none" transform="matrix(1 0 0 1 280 647 )" />
  </g>
</svg>