<?xml version="1.0" encoding="utf-8"?>
<svg version="1.1" xmlns:xlink="http://www.w3.org/1999/xlink" width="47px" height="25px" xmlns="http://www.w3.org/2000/svg">
  <g transform="matrix(1 0 0 1 -632 -435 )">
    <path d="M 3.35714285714286 12.5  C 6.27715773809524 15.6994047619048  10.0102306547619 18.0245535714286  14.5563616071429 19.4754464285714  L 16.6021205357143 16.8526785714286  C 15.0809151785714 16.0714285714286  13.8919270833333 15.0855654761905  13.03515625 13.8950892857143  C 12.1783854166667 12.7046130952381  11.75 11.4459325396825  11.75 10.1190476190476  C 11.75 8.61855158730159  12.2832961309524 7.2234623015873  13.3498883928571 5.93377976190476  C 9.34579613095238 7.38467261904762  6.01488095238095 9.5734126984127  3.35714285714286 12.5  Z M 24.3917410714286 5.98958333333333  C 24.6365327380952 5.81597222222222  24.7589285714286 5.60515873015873  24.7589285714286 5.35714285714286  C 24.7589285714286 5.10912698412698  24.6365327380952 4.89831349206349  24.3917410714286 4.72470238095238  C 24.1469494047619 4.55109126984127  23.8497023809524 4.46428571428572  23.5 4.46428571428572  C 21.3143601190476 4.46428571428572  19.4390811011905 5.01922123015873  17.8741629464286 6.12909226190476  C 16.3092447916667 7.23896329365079  15.5267857142857 8.56894841269841  15.5267857142857 10.1190476190476  C 15.5267857142857 10.3670634920635  15.6491815476191 10.577876984127  15.8939732142857 10.7514880952381  C 16.1387648809524 10.9250992063492  16.4360119047619 11.0119047619048  16.7857142857143 11.0119047619048  C 17.1354166666667 11.0119047619048  17.4326636904762 10.9250992063492  17.6774553571429 10.7514880952381  C 17.9222470238095 10.577876984127  18.0446428571429 10.3670634920635  18.0446428571429 10.1190476190476  C 18.0446428571429 9.05257936507936  18.5779389880952 8.14112103174603  19.64453125 7.38467261904762  C 20.7111235119048 6.6282242063492  21.9962797619048 6.25  23.5 6.25  C 23.8497023809524 6.25  24.1469494047619 6.16319444444444  24.3917410714286 5.98958333333333  Z M 33.8599330357143 1.30208333333333  C 34.1396949404762 1.42609126984127  34.2795758928571 1.59350198412698  34.2795758928571 1.80431547619048  C 34.2795758928571 1.89112103174603  34.2708333333333 1.9469246031746  34.2533482142857 1.97172619047619  C 32.3999255952381 4.31547619047619  29.6372767857143 7.83110119047619  25.9654017857143 12.5186011904762  C 22.2935267857143 17.2061011904762  19.5396205357143 20.7155257936508  17.7036830357143 23.046875  L 16.4185267857143 24.702380952381  C 16.2436755952381 24.9007936507937  15.9988839285714 25  15.6841517857143 25  C 15.4743303571429 25  14.3028273809524 24.5659722222222  12.1696428571429 23.6979166666667  C 11.889880952381 23.5739087301587  11.75 23.4002976190476  11.75 23.1770833333333  C 11.75 23.0282738095238  12.1346726190476 22.4888392857143  12.9040178571429 21.5587797619048  C 10.4036458333333 20.7527281746032  8.09998139880953 19.6800595238095  5.99302455357143 18.3407738095238  C 3.88606770833333 17.0014880952381  2.06324404761905 15.4823908730159  0.524553571428571 13.7834821428571  C 0.17485119047619 13.3990575396825  0 12.9712301587302  0 12.5  C 0 12.0287698412698  0.17485119047619 11.6009424603175  0.524553571428571 11.2165178571429  C 3.19977678571429 8.30233134920635  6.52194940476191 6.00198412698412  10.4910714285714 4.31547619047619  C 14.460193452381 2.62896825396825  18.7965029761905 1.78571428571428  23.5 1.78571428571428  C 25.0561755952381 1.78571428571428  26.6298363095238 1.89112103174603  28.2209821428571 2.10193452380952  L 29.6372767857143 0.297619047619047  C 29.8121279761905 0.0992063492063489  30.0569196428571 0  30.3716517857143 0  C 30.4590773809524 0  30.616443452381 0.0372023809523808  30.84375 0.111607142857142  C 31.071056547619 0.186011904761904  31.3420758928571 0.282118055555552  31.6568080357143 0.399925595238096  C 31.9715401785714 0.517733134920634  32.2600446428571 0.632440476190477  32.5223214285714 0.744047619047619  C 32.7845982142857 0.855654761904762  33.0599888392857 0.970362103174599  33.3484933035714 1.08816964285714  C 33.6369977678571 1.20597718253968  33.8074776785714 1.27728174603174  33.8599330357143 1.30208333333333  Z M 35.0401785714286 8.55654761904762  C 35.1800595238095 9.11458333333333  35.25 9.63541666666667  35.25 10.1190476190476  C 35.25 11.8427579365079  34.5593377976191 13.414558531746  33.1780133928571 14.8344494047619  C 31.7966889880952 16.2543402777778  29.969494047619 17.2743055555556  27.6964285714286 17.8943452380952  L 35.0401785714286 8.55654761904762  Z M 46.4754464285714 11.2165178571429  C 46.8251488095238 11.6381448412698  47 12.0659722222222  47 12.5  C 47 12.9340277777778  46.8251488095238 13.3618551587302  46.4754464285714 13.7834821428571  C 45.7935267857143 14.5771329365079  44.8405877976191 15.4761904761905  43.6166294642857 16.4806547619048  C 40.9938616071429 18.6135912698413  37.9558221726191 20.2690972222222  34.5025111607143 21.4471726190476  C 31.0492001488095 22.625248015873  27.3816964285714 23.2142857142857  23.5 23.2142857142857  L 25.4408482142857 20.7589285714286  C 29.147693452381 20.5357142857143  32.5791480654762 19.6862599206349  35.7352120535714 18.2105654761905  C 38.8912760416667 16.734871031746  41.5271577380952 14.8313492063492  43.6428571428571 12.5  C 41.632068452381 10.2802579365079  39.1666666666667 8.45734126984127  36.2466517857143 7.03125  L 37.8989955357143 4.94791666666667  C 39.5600818452381 5.74156746031746  41.1555989583333 6.69022817460317  42.685546875 7.79389880952381  C 44.2154947916667 8.89756944444444  45.4787946428571 10.0384424603175  46.4754464285714 11.2165178571429  Z " fill-rule="nonzero" fill="#000000" stroke="none" transform="matrix(1 0 0 1 632 435 )" />
  </g>
</svg>