<?xml version="1.0" encoding="utf-8"?>
<svg version="1.1" xmlns:xlink="http://www.w3.org/1999/xlink" width="300px" height="27px" xmlns="http://www.w3.org/2000/svg">
  <defs>
    <mask fill="white" id="clip53">
      <path d="M 0 27  L 0 0  L 162.999999999999 0  L 184.333333333334 0  L 300 0  L 300 27  L 152.333333333333 27  L 0 27  Z " fill-rule="evenodd" />
    </mask>
  </defs>
  <g transform="matrix(1 0 0 1 -358 -830 )">
    <path d="M 0 27  L 0 0  L 162.999999999999 0  L 184.333333333334 0  L 300 0  L 300 27  L 152.333333333333 27  L 0 27  Z " fill-rule="nonzero" fill="#ffffff" stroke="none" transform="matrix(1 0 0 1 358 830 )" />
    <path d="M 0 27  L 0 0  L 162.999999999999 0  L 184.333333333334 0  L 300 0  L 300 27  L 152.333333333333 27  L 0 27  Z " stroke-width="2" stroke="#ffffff" fill="none" transform="matrix(1 0 0 1 358 830 )" mask="url(#clip53)" />
  </g>
</svg>