<?xml version="1.0" encoding="utf-8"?>
<svg version="1.1" xmlns:xlink="http://www.w3.org/1999/xlink" width="330px" height="190px" xmlns="http://www.w3.org/2000/svg">
  <g transform="matrix(1 0 0 1 -380 -270 )">
    <path d="M 143.16650390625 121.656901041667  C 143.97216796875 125.491536458333  144.375 129.635416666667  144.375 134.088541666667  C 144.375 138.624131944444  142.68310546875 142.479383680556  139.29931640625 145.654296875  C 135.91552734375 148.829210069444  131.8603515625 150.416666666667  127.1337890625 150  L 58.4912109375 150  C 53.7646484375 150.416666666667  49.70947265625 148.829210069444  46.32568359375 145.654296875  C 42.94189453125 142.479383680556  41.25 138.624131944444  41.25 134.088541666667  C 41.25 129.635416666667  41.65283203125 125.491536458333  42.45849609375 121.656901041667  C 43.26416015625 117.822265625  44.580078125 114.111328125  46.40625 110.524088541667  C 48.232421875 106.936848958333  50.9716796875 104.112413194444  54.6240234375 102.05078125  C 58.2763671875 99.9891493055556  62.626953125 98.9583333333333  67.67578125 98.9583333333333  C 74.55078125 104.236111111111  82.9296875 106.875  92.8125 106.875  C 102.6953125 106.875  111.07421875 104.236111111111  117.94921875 98.9583333333333  C 122.998046875 98.9583333333333  127.3486328125 99.9891493055556  131.0009765625 102.05078125  C 134.6533203125 104.112413194444  137.392578125 106.936848958333  139.21875 110.524088541667  C 141.044921875 114.111328125  142.36083984375 117.822265625  143.16650390625 121.656901041667  Z M 114.7265625 62.34375  C 120.7421875 66.9618055555555  123.75 72.5694444444444  123.75 79.1666666666667  C 123.75 85.7638888888889  120.7421875 91.3715277777778  114.7265625 95.9895833333333  C 108.7109375 100.607638888889  101.40625 102.916666666667  92.8125 102.916666666667  C 84.21875 102.916666666667  76.9140625 100.607638888889  70.8984375 95.9895833333333  C 64.8828125 91.3715277777778  61.875 85.7638888888889  61.875 79.1666666666667  C 61.875 72.5694444444444  64.8828125 66.9618055555555  70.8984375 62.34375  C 76.9140625 57.7256944444444  84.21875 55.4166666666667  92.8125 55.4166666666667  C 101.40625 55.4166666666667  108.7109375 57.7256944444444  114.7265625 62.34375  Z M 287.2998046875 127.779947916667  C 288.2666015625 128.522135416667  288.75 129.470486111111  288.75 130.625  L 288.75 138.541666666667  C 288.75 139.696180555556  288.2666015625 140.64453125  287.2998046875 141.38671875  C 286.3330078125 142.12890625  285.09765625 142.5  283.59375 142  L 170.15625 142  C 168.65234375 142.5  167.4169921875 142.12890625  166.4501953125 141.38671875  C 165.4833984375 140.64453125  165 139.696180555556  165 138.541666666667  L 165 130.625  C 165 129.470486111111  165.4833984375 128.522135416667  166.4501953125 127.779947916667  C 167.4169921875 127.037760416667  168.65234375 126.666666666667  170.15625 126  L 283.59375 126  C 285.09765625 126.666666666667  286.3330078125 127.037760416667  287.2998046875 127.779947916667  Z M 225.4248046875 96.11328125  C 226.3916015625 96.85546875  226.875 97.8038194444444  226.875 98.9583333333333  L 226.875 106.875  C 226.875 108.029513888889  226.3916015625 108.977864583333  225.4248046875 109.720052083333  C 224.4580078125 110.462239583333  223.22265625 110.833333333333  221.71875 110  L 170.15625 110  C 168.65234375 110.833333333333  167.4169921875 110.462239583333  166.4501953125 109.720052083333  C 165.4833984375 108.977864583333  165 108.029513888889  165 106.875  L 165 98.9583333333333  C 165 97.8038194444444  165.4833984375 96.85546875  166.4501953125 96.11328125  C 167.4169921875 95.37109375  168.65234375 95  170.15625 95  L 221.71875 95  C 223.22265625 95  224.4580078125 95.37109375  225.4248046875 96.11328125  Z M 287.2998046875 96.11328125  C 288.2666015625 96.85546875  288.75 97.8038194444444  288.75 98.9583333333333  L 288.75 106.875  C 288.75 108.029513888889  288.2666015625 108.977864583333  287.2998046875 109.720052083333  C 286.3330078125 110.462239583333  285.09765625 110.833333333333  283.59375 110  L 252.65625 110  C 251.15234375 110.833333333333  249.9169921875 110.462239583333  248.9501953125 109.720052083333  C 247.9833984375 108.977864583333  247.5 108.029513888889  247.5 106.875  L 247.5 98.9583333333333  C 247.5 97.8038194444444  247.9833984375 96.85546875  248.9501953125 96.11328125  C 249.9169921875 95.37109375  251.15234375 95  252.65625 95  L 283.59375 95  C 285.09765625 95  286.3330078125 95.37109375  287.2998046875 96.11328125  Z M 287.2998046875 64.4466145833333  C 288.2666015625 65.1888020833333  288.75 66.1371527777778  288.75 67.2916666666667  L 288.75 75.2083333333333  C 288.75 76.3628472222222  288.2666015625 77.3111979166667  287.2998046875 78.0533854166667  C 286.3330078125 78.7955729166667  285.09765625 79.1666666666667  283.59375 80  L 170.15625 80  C 168.65234375 79.1666666666667  167.4169921875 78.7955729166667  166.4501953125 78.0533854166667  C 165.4833984375 77.3111979166667  165 76.3628472222222  165 75.2083333333333  L 165 67.2916666666667  C 165 66.1371527777778  165.4833984375 65.1888020833333  166.4501953125 64.4466145833333  C 167.4169921875 63.7044270833333  168.65234375 63.3333333333333  170.15625 64  L 283.59375 64  C 285.09765625 63.3333333333333  286.3330078125 63.7044270833333  287.2998046875 64.4466145833333  Z M 307.84423828125 172.991536458333  C 308.86474609375 172.208116319444  309.375 171.280381944444  309 170.208333333333  L 309 32  L 21 32  L 21 170.208333333333  C 20.625 171.280381944444  21.13525390625 172.208116319444  22.15576171875 172.991536458333  C 23.17626953125 173.774956597222  24.384765625 174.166666666667  25.78125 174  L 304.21875 174  C 305.615234375 174.166666666667  306.82373046875 173.774956597222  307.84423828125 172.991536458333  Z M 322.4267578125 5.81380208333334  C 327.4755859375 9.68967013888888  330 14.3489583333333  330 19.7916666666667  L 330 170.208333333333  C 330 175.651041666667  327.4755859375 180.310329861111  322.4267578125 184.186197916667  C 317.3779296875 188.062065972222  311.30859375 190  304.21875 190  L 25.78125 190  C 18.69140625 190  12.6220703125 188.062065972222  7.5732421875 184.186197916667  C 2.5244140625 180.310329861111  0 175.651041666667  0 170.208333333333  L 0 19.7916666666667  C 0 14.3489583333333  2.5244140625 9.68967013888888  7.5732421875 5.81380208333334  C 12.6220703125 1.93793402777776  18.69140625 0  25.78125 0  L 304.21875 0  C 311.30859375 0  317.3779296875 1.93793402777776  322.4267578125 5.81380208333334  Z " fill-rule="nonzero" fill="#aaaaaa" stroke="none" transform="matrix(1 0 0 1 380 270 )" />
  </g>
</svg>