<?xml version="1.0" encoding="utf-8"?>
<svg version="1.1" xmlns:xlink="http://www.w3.org/1999/xlink" width="330px" height="184px" xmlns="http://www.w3.org/2000/svg">
  <g transform="matrix(1 0 0 1 -380 -525 )">
    <path d="M 163.5498046875 106.075520833333  C 164.5166015625 110.348090277778  165 115.039930555556  165 120.151041666667  C 165 125.262152777778  163.0126953125 129.514756944444  159.0380859375 132.908854166667  C 155.0634765625 136.302951388889  150.17578125 138  144.375 138  L 61.875 138  C 56.07421875 138  51.1865234375 136.302951388889  47.2119140625 132.908854166667  C 43.2373046875 129.514756944444  41.25 125.262152777778  41.25 120.151041666667  C 41.25 115.039930555556  41.7333984375 110.348090277778  42.7001953125 106.075520833333  C 43.6669921875 101.802951388889  45.25146484375 97.6901041666667  47.45361328125 93.7369791666667  C 49.65576171875 89.7838541666667  52.9052734375 86.6692708333333  57.2021484375 84.3932291666667  C 61.4990234375 82.1171875  66.708984375 80.9791666666667  72.83203125 80.9791666666667  C 73.4765625 81.2986111111111  75.087890625 82.0173611111111  77.666015625 83.1354166666667  C 80.244140625 84.2534722222222  82.25830078125 85.1119791666667  83.70849609375 85.7109375  C 85.15869140625 86.3098958333333  87.0654296875 87.0086805555555  89.4287109375 87.8072916666667  C 91.7919921875 88.6059027777778  94.1015625 89.1848958333333  96.357421875 89.5442708333333  C 98.61328125 89.9036458333333  100.869140625 90.0833333333333  103.125 90.0833333333333  C 105.380859375 90.0833333333333  107.63671875 89.9036458333333  109.892578125 89.5442708333333  C 112.1484375 89.1848958333333  114.4580078125 88.6059027777778  116.8212890625 87.8072916666667  C 119.1845703125 87.0086805555555  121.09130859375 86.3098958333333  122.54150390625 85.7109375  C 123.99169921875 85.1119791666667  126.005859375 84.2534722222222  128.583984375 83.1354166666667  C 131.162109375 82.0173611111111  132.7734375 81.2986111111111  133.41796875 80.9791666666667  C 139.541015625 80.9791666666667  144.7509765625 82.1171875  149.0478515625 84.3932291666667  C 153.3447265625 86.6692708333333  156.59423828125 89.7838541666667  158.79638671875 93.7369791666667  C 160.99853515625 97.6901041666667  162.5830078125 101.802951388889  163.5498046875 106.075520833333  Z M 128.98681640625 38.6328125  C 136.13037109375 43.9435763888889  139.7021484375 50.3524305555555  139.7021484375 57.859375  C 139.7021484375 65.3663194444444  136.13037109375 71.7751736111111  128.98681640625 77.0859375  C 121.84326171875 82.3967013888889  113.22265625 85.0520833333333  103.125 85.0520833333333  C 93.02734375 85.0520833333333  84.40673828125 82.3967013888889  77.26318359375 77.0859375  C 70.11962890625 71.7751736111111  66.5478515625 65.3663194444444  66.5478515625 57.859375  C 66.5478515625 50.3524305555555  70.11962890625 43.9435763888889  77.26318359375 38.6328125  C 84.40673828125 33.3220486111111  93.02734375 30.6666666666667  103.125 30.6666666666667  C 113.22265625 30.6666666666667  121.84326171875 33.3220486111111  128.98681640625 38.6328125  Z M 287.2998046875 108.411458333333  C 288.2666015625 109.130208333333  288.75 110.048611111111  288.75 111.166666666667  L 288.75 118.833333333333  C 288.75 119.951388888889  288.2666015625 120.869791666667  287.2998046875 121.588541666667  C 286.3330078125 122.307291666667  285.09765625 122.666666666667  283.59375 122  L 190.78125 122  C 189.27734375 122.666666666667  188.0419921875 122.307291666667  187.0751953125 121.588541666667  C 186.1083984375 120.869791666667  185.625 119.951388888889  185.625 118.833333333333  L 185.625 111.166666666667  C 185.625 110.048611111111  186.1083984375 109.130208333333  187.0751953125 108.411458333333  C 188.0419921875 107.692708333333  189.27734375 107.333333333333  190.78125 107  L 283.59375 107  C 285.09765625 107.333333333333  286.3330078125 107.692708333333  287.2998046875 108.411458333333  Z M 287.05810546875 77.9244791666667  C 288.18603515625 78.7630208333333  288.75 79.78125  288.75 80.9791666666667  L 288.75 87.6875  C 288.75 88.8854166666667  288.18603515625 89.9036458333333  287.05810546875 90.7421875  C 285.93017578125 91.5807291666667  284.560546875 92  282.94921875 92  L 191.42578125 92  C 189.814453125 92  188.44482421875 91.5807291666667  187.31689453125 90.7421875  C 186.18896484375 89.9036458333333  185.625 88.8854166666667  185.625 87.6875  L 185.625 80.9791666666667  C 185.625 79.78125  186.18896484375 78.7630208333333  187.31689453125 77.9244791666667  C 188.44482421875 77.0859375  189.814453125 76.6666666666667  191.42578125 77  L 282.94921875 77  C 284.560546875 76.6666666666667  285.93017578125 77.0859375  287.05810546875 77.9244791666667  Z M 287.2998046875 47.078125  C 288.2666015625 47.796875  288.75 48.7152777777778  288.75 49.8333333333333  L 288.75 57.5  C 288.75 58.6180555555555  288.2666015625 59.5364583333333  287.2998046875 60.2552083333333  C 286.3330078125 60.9739583333333  285.09765625 61.3333333333333  283.59375 62  L 190.78125 62  C 189.27734375 61.3333333333333  188.0419921875 60.9739583333333  187.0751953125 60.2552083333333  C 186.1083984375 59.5364583333333  185.625 58.6180555555555  185.625 57.5  L 185.625 49.8333333333333  C 185.625 48.7152777777778  186.1083984375 47.796875  187.0751953125 47.078125  C 188.0419921875 46.359375  189.27734375 46  190.78125 46  L 283.59375 46  C 285.09765625 46  286.3330078125 46.359375  287.2998046875 47.078125  Z M 307.84423828125 167.528645833333  C 308.86474609375 166.769965277778  309.375 165.871527777778  309 164.833333333333  L 309 19.1666666666667  C 309.375 18.1284722222222  308.86474609375 17.2300347222222  307.84423828125 16.4713541666667  C 306.82373046875 15.7126736111111  305.615234375 15.3333333333333  304.21875 16  L 25.78125 16  C 24.384765625 15.3333333333333  23.17626953125 15.7126736111111  22.15576171875 16.4713541666667  C 21.13525390625 17.2300347222222  20.625 18.1284722222222  21 19.1666666666667  L 21 164.833333333333  C 20.625 165.871527777778  21.13525390625 166.769965277778  22.15576171875 167.528645833333  C 23.17626953125 168.287326388889  24.384765625 168.666666666667  25.78125 168  L 83 168  L 83 157.166666666667  C 82.5 156.048611111111  82.9833984375 155.130208333333  83.9501953125 154.411458333333  C 84.9169921875 153.692708333333  86.15234375 153.333333333333  87.65625 153  L 97.96875 153  C 99.47265625 153.333333333333  100.7080078125 153.692708333333  101.6748046875 154.411458333333  C 102.6416015625 155.130208333333  103.125 156.048611111111  104 157.166666666667  L 104 168  L 226 168  L 226 157.166666666667  C 226.875 156.048611111111  227.3583984375 155.130208333333  228.3251953125 154.411458333333  C 229.2919921875 153.692708333333  230.52734375 153.333333333333  232.03125 153  L 242.34375 153  C 243.84765625 153.333333333333  245.0830078125 153.692708333333  246.0498046875 154.411458333333  C 247.0166015625 155.130208333333  247.5 156.048611111111  247 157.166666666667  L 247 168  L 304.21875 168  C 305.615234375 168.666666666667  306.82373046875 168.287326388889  307.84423828125 167.528645833333  Z M 322.4267578125 5.63020833333334  C 327.4755859375 9.38368055555555  330 13.8958333333333  330 19.1666666666667  L 330 164.833333333333  C 330 170.104166666667  327.4755859375 174.616319444444  322.4267578125 178.369791666667  C 317.3779296875 182.123263888889  311.30859375 184  304.21875 184  L 25.78125 184  C 18.69140625 184  12.6220703125 182.123263888889  7.5732421875 178.369791666667  C 2.5244140625 174.616319444444  0 170.104166666667  0 164.833333333333  L 0 19.1666666666667  C 0 13.8958333333333  2.5244140625 9.38368055555555  7.5732421875 5.63020833333334  C 12.6220703125 1.87673611111109  18.69140625 0  25.78125 0  L 304.21875 0  C 311.30859375 0  317.3779296875 1.87673611111109  322.4267578125 5.63020833333334  Z " fill-rule="nonzero" fill="#aaaaaa" stroke="none" transform="matrix(1 0 0 1 380 525 )" />
  </g>
</svg>