<?xml version="1.0" encoding="utf-8"?>
<svg version="1.1" xmlns:xlink="http://www.w3.org/1999/xlink" width="42px" height="50px" xmlns="http://www.w3.org/2000/svg">
  <g transform="matrix(1 0 0 1 -559 -723 )">
    <path d="M 37.2361809045226 32.7223557692308  C 38.6231155778894 34.7055288461538  40.2110552763819 35.9675480769231  42 36.5084134615385  C 41.2160804020101 39.0124198717949  39.9798994974874 41.5164262820513  38.2914572864322 44.0204326923077  C 35.6984924623116 47.9467147435897  33.1155778894472 49.9098557692308  30.5427135678392 49.9098557692308  C 29.5577889447236 49.9098557692308  28.1507537688442 49.5893429487179  26.321608040201 48.9483173076923  C 24.5929648241206 48.3072916666667  23.0753768844221 47.9867788461538  21.7688442211055 47.9867788461538  C 20.5427135678392 47.9867788461538  19.1155778894472 48.3173076923077  17.4874371859296 48.9783653846154  C 15.8592964824121 49.6594551282051  14.5326633165829 50  13.5075376884422 50  C 10.4522613065327 50  7.42713567839196 47.4058493589744  4.4321608040201 42.2175480769231  C 1.47738693467337 36.9891826923077  0 31.9511217948718  0 27.1033653846154  C 0 22.5360576923077  1.1356783919598 18.7900641025641  3.4070351758794 15.8653846153846  C 5.678391959799 12.9807692307692  8.53266331658291 11.5384615384615  11.9698492462312 11.5384615384615  C 13.4170854271357 11.5384615384615  15.1959798994975 11.8389423076923  17.3065326633166 12.4399038461538  C 19.3969849246231 13.0408653846154  20.78391959799 13.3413461538462  21.4673366834171 13.3413461538462  C 22.3718592964824 13.3413461538462  23.8090452261307 13.0008012820513  25.7788944723618 12.3197115384615  C 27.8291457286432 11.6386217948718  29.5678391959799 11.2980769230769  30.9949748743719 11.2980769230769  C 33.3869346733668 11.2980769230769  35.5276381909548 11.9491185897436  37.4170854271357 13.2512019230769  C 38.462311557789 13.9723557692308  39.5075376884422 14.9739583333333  40.5527638190955 16.2560096153846  C 38.964824120603 17.598157051282  37.8190954773869 18.7800480769231  37.1155778894472 19.8016826923077  C 35.8090452261307 21.6846955128205  35.1557788944724 23.7580128205128  35.1557788944724 26.0216346153846  C 35.1557788944724 28.505608974359  35.8492462311558 30.7391826923077  37.2361809045226 32.7223557692308  Z M 30.6482412060302 0.961538461538464  C 30.6582914572864 1.08173076923077  30.6633165829146 1.18189102564102  30.6633165829146 1.26201923076923  C 30.6633165829146 2.48397435897436  30.3718592964824 3.84615384615384  29.7889447236181 5.34855769230769  C 29.1859296482412 6.85096153846154  28.251256281407 8.23317307692308  26.9849246231156 9.49519230769231  C 25.8994974874372 10.5769230769231  24.8140703517588 11.2980769230769  23.7286432160804 11.6586538461538  C 22.9849246231156 11.8790064102564  21.9396984924623 12.0492788461538  20.5929648241206 12.1694711538462  C 20.6532663316583 9.18469551282051  21.4371859296482 6.61057692307692  22.9447236180905 4.44711538461539  C 24.4321608040201 2.30368589743589  26.9447236180905 0.821314102564102  30.4824120603015 0  C 30.5025125628141 0.0600961538461564  30.5276381909548 0.170272435897434  30.5577889447236 0.330528846153844  C 30.5879396984925 0.490785256410253  30.6130653266332 0.600961538461536  30.6331658291457 0.661057692307693  C 30.6331658291457 0.741185897435892  30.6381909547739 0.841346153846156  30.6482412060302 0.961538461538464  Z " fill-rule="nonzero" fill="#333333" stroke="none" transform="matrix(1 0 0 1 559 723 )" />
  </g>
</svg>