<?xml version="1.0" encoding="utf-8"?>
<svg version="1.1" xmlns:xlink="http://www.w3.org/1999/xlink" width="50px" height="41px" xmlns="http://www.w3.org/2000/svg">
  <g transform="matrix(1 0 0 1 -346 -731 )">
    <path d="M 13.5498046875 11.4175659472422  C 13.9567057291667 11.0160871302958  14.16015625 10.4794164668265  14.16015625 9.80755395683453  C 14.16015625 9.13569144684252  13.9567057291667 8.5949240607514  13.5498046875 8.18525179856115  C 13.1429036458333 7.7755795363709  12.6057942708333 7.57074340527578  11.9384765625 7.57074340527578  C 11.2386067708333 7.57074340527578  10.6201171875 7.77967625899281  10.0830078125 8.19754196642686  C 9.5458984375 8.61540767386091  9.27734375 9.15207833733013  9.27734375 9.80755395683453  C 9.27734375 10.4466426858513  9.5458984375 10.9751199040767  10.0830078125 11.3929856115108  C 10.6201171875 11.8108513189448  11.2386067708333 12.0197841726619  11.9384765625 12.0197841726619  C 12.6057942708333 12.0197841726619  13.1429036458333 11.8190447641886  13.5498046875 11.4175659472422  Z M 31.67724609375 23.523381294964  C 32.09228515625 23.1628697042366  32.2998046875 22.7450039968026  32.2998046875 22.2697841726619  C 32.2998046875 21.8109512390088  32.09228515625 21.4012789768185  31.67724609375 21.0407673860911  C 31.26220703125 20.6802557953637  30.7291666666667 20.5  30.078125 20.5  C 29.638671875 20.5  29.23583984375 20.6843525179856  28.86962890625 21.0530575539568  C 28.50341796875 21.4217625899281  28.3203125 21.8273381294964  28.3203125 22.2697841726619  C 28.3203125 22.728617106315  28.50341796875 23.1423860911271  28.86962890625 23.5110911270983  C 29.23583984375 23.8797961630695  29.638671875 24.0641486810552  30.078125 24.0641486810552  C 30.7291666666667 24.0641486810552  31.26220703125 23.8838928856914  31.67724609375 23.523381294964  Z M 25.93994140625 11.4175659472422  C 26.3387044270833 11.0160871302958  26.5380859375 10.4794164668265  26.5380859375 9.80755395683453  C 26.5380859375 9.13569144684252  26.3387044270833 8.5949240607514  25.93994140625 8.18525179856115  C 25.5411783854167 7.7755795363709  25.0081380208333 7.57074340527578  24.3408203125 7.57074340527578  C 23.6409505208333 7.57074340527578  23.0224609375 7.77967625899281  22.4853515625 8.19754196642686  C 21.9482421875 8.61540767386091  21.6796875 9.15207833733013  21.6796875 9.80755395683453  C 21.6796875 10.4466426858513  21.9482421875 10.9751199040767  22.4853515625 11.3929856115108  C 23.0224609375 11.8108513189448  23.6409505208333 12.0197841726619  24.3408203125 12.0197841726619  C 25.0081380208333 12.0197841726619  25.5411783854167 11.8190447641886  25.93994140625 11.4175659472422  Z M 41.40625 23.523381294964  C 41.8294270833333 23.1628697042366  42.041015625 22.7450039968026  42.041015625 22.2697841726619  C 42.041015625 21.8109512390088  41.8294270833333 21.4012789768185  41.40625 21.0407673860911  C 40.9830729166667 20.6802557953637  40.4541015625 20.5  39.8193359375 20.5  C 39.3798828125 20.5  38.97705078125 20.6843525179856  38.61083984375 21.0530575539568  C 38.24462890625 21.4217625899281  38.0615234375 21.8273381294964  38.0615234375 22.2697841726619  C 38.0615234375 22.728617106315  38.24462890625 23.1423860911271  38.61083984375 23.5110911270983  C 38.97705078125 23.8797961630695  39.3798828125 24.0641486810552  39.8193359375 24.0641486810552  C 40.4541015625 24.0641486810552  40.9830729166667 23.8838928856914  41.40625 23.523381294964  Z M 32.21435546875 6.10821342925659  C 33.9314778645833 8.01728617106315  35.0423177083333 10.1516786570743  35.546875 12.5113908872902  C 35.0423177083333 12.4458433253397  34.47265625 12.4130695443645  33.837890625 12.4130695443645  C 31.0872395833333 12.4130695443645  28.5563151041667 13.0439648281375  26.2451171875 14.3057553956835  C 23.9339192708333 15.5675459632294  22.1150716145833 17.2758792965627  20.78857421875 19.4307553956835  C 19.4620768229167 21.5856314948042  18.798828125 23.9412470023981  18.798828125 26.4976019184652  C 18.798828125 27.7757793764988  18.9860026041667 29.0211830535572  19.3603515625 30.2338129496403  C 18.7906901041667 30.2829736211031  18.2373046875 30.3075539568345  17.7001953125 30.3075539568345  C 17.2770182291667 30.3075539568345  16.8701171875 30.2952637889688  16.4794921875 30.2706834532374  C 16.0888671875 30.246103117506  15.6412760416667 30.1928457234213  15.13671875 30.1109112709832  C 14.6321614583333 30.0289768185452  14.27001953125 29.9716227018385  14.05029296875 29.9388489208633  C 13.83056640625 29.9060751398881  13.3870442708333 29.8200439648281  12.7197265625 29.6807553956835  C 12.0524088541667 29.5414668265388  11.6455078125 29.4554356514788  11.4990234375 29.4226618705036  L 5.322265625 32.5443645083933  L 7.080078125 27.1858513189448  C 2.36002604166667 23.85931254996  0 19.8445243804956  0 15.1414868105516  C 0 12.3721023181455  0.79345703125 9.82394084732214  2.38037109375 7.49700239808153  C 3.96728515625 5.17006394884093  6.11572265625 3.33882893685052  8.82568359375 2.00329736211031  C 11.53564453125 0.667765787370101  14.4938151041667 0  17.7001953125 0  C 20.5647786458333 0  23.2706705729167 0.540767386091128  25.81787109375 1.62230215827338  C 28.3650716145833 2.70383693045564  30.4972330729167 4.19914068745004  32.21435546875 6.10821342925659  Z M 47.91259765625 19.8240407673861  C 49.30419921875 21.8150479616307  50 23.9740207833733  50 26.3009592326139  C 50 28.2182254196643  49.4425455729167 30.0494604316547  48.32763671875 31.7946642685851  C 47.2127278645833 33.5398681055156  45.703125 35.1252997601918  43.798828125 36.5509592326139  L 45.1416015625 41  L 40.283203125 38.3207434052758  C 37.841796875 38.9270583533173  36.0677083333333 39.2302158273381  34.9609375 39.2302158273381  C 32.2102864583333 39.2302158273381  29.6793619791667 38.6525779376499  27.3681640625 37.4973021582734  C 25.0569661458333 36.3420263788969  23.2381184895833 34.7729816147082  21.91162109375 32.7901678657074  C 20.5851236979167 30.8073541167066  19.921875 28.6442845723421  19.921875 26.3009592326139  C 19.921875 23.9576338928857  20.5851236979167 21.7945643485212  21.91162109375 19.8117505995204  C 23.2381184895833 17.8289368505196  25.0569661458333 16.2598920863309  27.3681640625 15.1046163069544  C 29.6793619791667 13.9493405275779  32.2102864583333 13.3717026378897  34.9609375 13.3717026378897  C 37.5813802083333 13.3717026378897  40.0472005208333 13.9493405275779  42.3583984375 15.1046163069544  C 44.6695963541667 16.2598920863309  46.52099609375 17.8330335731415  47.91259765625 19.8240407673861  Z " fill-rule="nonzero" fill="#039d12" stroke="none" transform="matrix(1 0 0 1 346 731 )" />
  </g>
</svg>