<?xml version="1.0" encoding="utf-8"?>
<svg version="1.1" xmlns:xlink="http://www.w3.org/1999/xlink" width="49px" height="50px" xmlns="http://www.w3.org/2000/svg">
  <g transform="matrix(1 0 0 1 -442 -726 )">
    <path d="M 0 35.4910714285714  C 0 30.375744047619  2.34396355353075 26.0416666666667  7.03189066059226 22.4888392857143  C 6.8830675778284 22.1354166666667  6.80865603644647 21.6517857142857  6.80865603644647 21.0379464285714  C 6.80865603644647 20.6659226190476  6.91097190584662 20.2101934523809  7.11560364464692 19.6707589285714  C 7.32023538344723 19.1313244047619  7.54347000759302 18.7127976190476  7.78530751708428 18.4151785714286  C 7.7667046317388 18.0059523809524  7.83646545178436 17.5130208333333  7.99458997722096 16.9363839285714  C 8.15271450265756 16.3597470238095  8.36199696279423 15.9598214285714  8.62243735763098 15.7366071428571  C 8.62243735763098 13.1510416666667  9.48282080485953 10.4678199404762  11.2035876993166 7.68694196428572  C 12.9243545937737 4.90606398809524  14.9474183750949 2.95758928571428  17.2727790432802 1.84151785714285  C 19.8585801063022 0.613839285714285  22.8722475322703 0  26.3137813211845 0  C 28.7879650721336 0  31.2621488230828 0.511532738095244  33.7363325740319 1.53459821428572  C 34.6478739559605 1.92522321428572  35.4850037965072 2.37165178571428  36.247722095672 2.87388392857143  C 37.0104403948367 3.37611607142857  37.6708428246014 3.8969494047619  38.2289293849658 4.43638392857143  C 38.7870159453303 4.97581845238095  39.2985952923311 5.60825892857143  39.7636674259681 6.33370535714286  C 40.2287395596052 7.05915178571428  40.6194001518603 7.74739583333333  40.9356492027335 8.3984375  C 41.2518982536067 9.04947916666666  41.5541951404708 9.83537946428572  41.8425398633257 10.7561383928571  C 42.1308845861807 11.6768973214286  42.3680713743356 12.5093005952381  42.5541002277904 13.2533482142857  C 42.7401290812453 13.9973958333333  42.9447608200456 14.9088541666667  43.1679954441913 15.9877232142857  L 43.1958997722096 16.1272321428571  C 44.2190584662111 17.6711309523809  44.7306378132118 19.0662202380952  44.7306378132118 20.3125  C 44.7306378132118 20.5729166666667  44.6469248291572 20.9449404761905  44.4794988610478 21.4285714285714  C 44.3120728929385 21.9122023809524  44.2283599088838 22.265625  44.2283599088838 22.4888392857143  C 44.2283599088838 22.5074404761905  44.2423120728929 22.5399925595238  44.2702164009112 22.5864955357143  C 44.2981207289294 22.6329985119048  44.330675778284 22.6795014880952  44.3678815489749 22.7260044642857  C 44.4050873196659 22.7725074404762  44.4236902050114 22.8050595238095  44.4236902050114 22.8236607142857  C 45.8561123766135 24.9441964285714  46.9769362186788 26.9391741071429  47.7861617312073 28.80859375  C 48.5953872437358 30.6780133928571  49 32.6171875  49 34.6261160714286  C 49 35.4259672619048  48.8186218678815 36.3560267857143  48.4558656036446 37.4162946428571  C 48.0931093394077 38.4765625  47.5768792710706 39.0066964285714  46.9071753986333 39.0066964285714  C 46.7397494305239 39.0066964285714  46.5583712984055 38.9369419642857  46.3630410022779 38.7974330357143  C 46.1677107061503 38.6579241071429  45.9909832953683 38.4951636904762  45.8328587699317 38.3091517857143  C 45.6747342444951 38.1231398809524  45.498006833713 37.8813244047619  45.3026765375854 37.5837053571429  C 45.1073462414579 37.2860863095238  44.958523158694 37.0396205357143  44.8562072892938 36.8443080357143  C 44.7538914198937 36.6489955357143  44.6283219438117 36.4071800595238  44.4794988610478 36.1188616071429  C 44.330675778284 35.8305431547619  44.2469627942293 35.6677827380952  44.2283599088838 35.6305803571429  C 44.2097570235383 35.6119791666667  44.1818526955201 35.6026785714286  44.1446469248292 35.6026785714286  L 44.005125284738 35.7142857142857  C 42.9075550493546 38.578869047619  41.6797646165528 40.6529017857143  40.3217539863326 41.9363839285714  C 40.6938116932422 42.3084077380952  41.2658504176158 42.6664806547619  42.0378701594533 43.0106026785714  C 42.8098899012908 43.354724702381  43.45168944571 43.7406994047619  43.9632687927107 44.1685267857143  C 44.4748481397115 44.5963541666667  44.8050493545938 45.2008928571429  44.9538724373576 45.9821428571429  C 44.9166666666667 46.0565476190476  44.8794608959757 46.2053571428571  44.8422551252847 46.4285714285714  C 44.8050493545938 46.6517857142857  44.7399392558846 46.8191964285714  44.6469248291572 46.9308035714286  C 43.4563401670463 48.7351190476191  40.6473044798785 49.6372767857143  36.2198177676538 49.6372767857143  C 35.2338648443432 49.6372767857143  34.2060554290053 49.5535714285714  33.1363895216401 49.3861607142857  C 32.0667236142749 49.21875  31.1551822323462 49.0327380952381  30.4017653758542 48.828125  C 29.6483485193622 48.6235119047619  28.6763477600607 48.3444940476191  27.4857630979499 47.9910714285714  C 27.2067198177677 47.8980654761905  26.9927866362946 47.8329613095238  26.8439635535307 47.7957589285714  C 26.583523158694 47.7213541666667  26.1556567957479 47.6795014880952  25.5603644646925 47.6702008928571  C 24.9650721336371 47.6609002976191  24.5930144267274 47.6469494047619  24.4441913439636 47.6283482142857  C 23.6814730447988 48.4654017857143  22.4955391040243 49.0699404761905  20.8863895216401 49.4419642857143  C 19.2772399392559 49.8139880952381  17.709946848899 50  16.1845102505695 50  C 15.5334092634776 50  14.8916097190585 49.9860491071429  14.2591116173121 49.9581473214286  C 13.6266135155657 49.9302455357143  12.7615793470008 49.8465401785714  11.6640091116173 49.70703125  C 10.5664388762339 49.5675223214286  9.62699316628702 49.3768601190476  8.84567198177676 49.1350446428571  C 8.06435079726652 48.8932291666667  7.37139331814731 48.5212053571429  6.76679954441913 48.0189732142857  C 6.16220577069096 47.5167410714286  5.85990888382688 46.9215029761905  5.85990888382688 46.2332589285714  C 5.85990888382688 45.4892113095238  5.95292331055429 44.9358258928571  6.13895216400911 44.5731026785714  C 6.32498101746393 44.2103794642857  6.70634016704632 43.7593005952381  7.28302961275626 43.2198660714286  C 7.48766135155657 43.1826636904762  7.86436977980258 43.061755952381  8.41315489749431 42.8571428571429  C 8.96194001518603 42.6525297619048  9.42236142748671 42.5409226190476  9.79441913439635 42.5223214285714  C 9.86883067577828 42.5223214285714  9.99905087319666 42.5037202380952  10.1850797266515 42.4665178571429  C 10.2222854973424 42.4293154761905  10.2408883826879 42.3921130952381  10.2408883826879 42.3549107142857  L 10.1850797266515 42.2712053571429  C 9.29214123006834 42.0665922619048  8.2875854214123 41.0853794642857  7.17141230068337 39.3275669642857  C 6.05523917995444 37.5697544642857  5.37623386484434 36.1142113095238  5.13439635535308 34.9609375  L 4.99487471526196 34.8772321428571  C 4.92046317388003 34.8772321428571  4.80884586180714 35.063244047619  4.66002277904328 35.4352678571429  C 4.3251708428246 36.1979166666667  3.81824221716021 36.8908110119048  3.13923690205011 37.5139508928571  C 2.46023158694002 38.1370907738095  1.73936977980258 38.4858630952381  0.976651480637813 38.5602678571429  L 0.94874715261959 38.5602678571429  C 0.874335611237661 38.5602678571429  0.818526955201215 38.5184151785714  0.781321184510251 38.4347098214286  C 0.744115413819286 38.3510044642857  0.697608200455581 38.2998511904762  0.641799544419134 38.28125  C 0.213933181473045 37.2767857142857  0 36.3467261904762  0 35.4910714285714  Z " fill-rule="nonzero" fill="#02a7f0" stroke="none" transform="matrix(1 0 0 1 442 726 )" />
  </g>
</svg>