<?xml version="1.0" encoding="utf-8"?>
<svg version="1.1" xmlns:xlink="http://www.w3.org/1999/xlink" width="50px" height="50px" xmlns="http://www.w3.org/2000/svg">
  <g transform="matrix(1 0 0 1 -368 -445 )">
    <path d="M 38.7369791666667 20.8333333333333  C 38.7369791666667 21.3975694444444  38.5308159722222 21.8858506944444  38.1184895833333 22.2981770833333  L 24.3815104166667 36.03515625  C 23.9691840277778 36.4474826388889  23.4809027777778 36.6536458333333  22.9166666666667 36.6536458333333  C 22.3524305555556 36.6536458333333  21.8641493055556 36.4474826388889  21.4518229166667 36.03515625  L 11.8815104166667 26.46484375  C 11.4691840277778 26.0525173611111  11.2630208333333 25.5642361111111  11.2630208333333 25  C 11.2630208333333 24.4357638888889  11.4691840277778 23.9474826388889  11.8815104166667 23.53515625  L 15.2018229166667 20.21484375  C 15.6141493055556 19.8025173611111  16.1024305555556 19.5963541666667  16.6666666666667 19.5963541666667  C 17.2309027777778 19.5963541666667  17.7191840277778 19.8025173611111  18.1315104166667 20.21484375  L 22.9166666666667 25  L 31.8684895833333 16.0481770833333  C 32.2808159722222 15.6358506944444  32.7690972222222 15.4296875  33.3333333333333 15.4296875  C 33.8975694444445 15.4296875  34.3858506944445 15.6358506944444  34.7981770833333 16.0481770833333  L 38.1184895833333 19.3684895833333  C 38.5308159722222 19.7808159722222  38.7369791666667 20.2690972222222  38.7369791666667 20.8333333333333  Z M 40.33203125 33.88671875  C 41.9162326388889 31.1740451388889  42.7083333333333 28.2118055555556  42.7083333333333 25  C 42.7083333333333 21.7881944444444  41.9162326388889 18.8259548611111  40.33203125 16.11328125  C 38.7478298611111 13.4006076388889  36.5993923611111 11.2521701388889  33.88671875 9.66796875  C 31.1740451388889 8.08376736111111  28.2118055555556 7.29166666666667  25 7.29166666666667  C 21.7881944444444 7.29166666666667  18.8259548611111 8.08376736111111  16.11328125 9.66796875  C 13.4006076388889 11.2521701388889  11.2521701388889 13.4006076388889  9.66796875 16.11328125  C 8.08376736111111 18.8259548611111  7.29166666666667 21.7881944444444  7.29166666666667 25  C 7.29166666666667 28.2118055555556  8.08376736111111 31.1740451388889  9.66796875 33.88671875  C 11.2521701388889 36.5993923611111  13.4006076388889 38.7478298611111  16.11328125 40.33203125  C 18.8259548611111 41.9162326388889  21.7881944444444 42.7083333333333  25 42.7083333333333  C 28.2118055555556 42.7083333333333  31.1740451388889 41.9162326388889  33.88671875 40.33203125  C 36.5993923611111 38.7478298611111  38.7478298611111 36.5993923611111  40.33203125 33.88671875  Z M 46.6471354166667 12.451171875  C 48.8823784722222 16.2814670138889  50 20.4644097222222  50 25  C 50 29.5355902777778  48.8823784722222 33.7185329861111  46.6471354166667 37.548828125  C 44.4118923611111 41.3791232638889  41.3791232638889 44.4118923611111  37.548828125 46.6471354166667  C 33.7185329861111 48.8823784722222  29.5355902777778 50  25 50  C 20.4644097222222 50  16.2814670138889 48.8823784722222  12.451171875 46.6471354166667  C 8.62087673611111 44.4118923611111  5.58810763888889 41.3791232638889  3.35286458333333 37.548828125  C 1.11762152777778 33.7185329861111  0 29.5355902777778  0 25  C 0 20.4644097222222  1.11762152777778 16.2814670138889  3.35286458333333 12.451171875  C 5.58810763888889 8.62087673611111  8.62087673611111 5.58810763888888  12.451171875 3.35286458333333  C 16.2814670138889 1.11762152777777  20.4644097222222 0  25 0  C 29.5355902777778 0  33.7185329861111 1.11762152777777  37.548828125 3.35286458333333  C 41.3791232638889 5.58810763888888  44.4118923611111 8.62087673611111  46.6471354166667 12.451171875  Z " fill-rule="nonzero" fill="#02a7f0" stroke="none" transform="matrix(1 0 0 1 368 445 )" />
  </g>
</svg>