<?xml version="1.0" encoding="utf-8"?>
<svg version="1.1" xmlns:xlink="http://www.w3.org/1999/xlink" width="90px" height="140px" xmlns="http://www.w3.org/2000/svg">
  <g transform="matrix(1 0 0 1 -348 -400 )">
    <path d="M 51.62109375 132.1796875  C 53.45703125 130.466145833333  54.375 128.40625  54.375 126  C 54.375 123.59375  53.45703125 121.533854166667  51.62109375 119.8203125  C 49.78515625 118.106770833333  47.578125 117.25  45 117.25  C 42.421875 117.25  40.21484375 118.106770833333  38.37890625 119.8203125  C 36.54296875 121.533854166667  35.625 123.59375  35.625 126  C 35.625 128.40625  36.54296875 130.466145833333  38.37890625 132.1796875  C 40.21484375 133.893229166667  42.421875 134.75  45 134.75  C 47.578125 134.75  49.78515625 133.893229166667  51.62109375 132.1796875  Z M 77.63671875 110.9609375  C 78.37890625 110.268229166667  78.75 109.447916666667  78 108.5  L 78 31.5  C 78.75 30.5520833333333  78.37890625 29.7317708333333  77.63671875 29.0390625  C 76.89453125 28.3463541666667  76.015625 28  75 28  L 15 28  C 13.984375 28  13.10546875 28.3463541666667  12.36328125 29.0390625  C 11.62109375 29.7317708333333  11.25 30.5520833333333  12 31.5  L 12 108.5  C 11.25 109.447916666667  11.62109375 110.268229166667  12.36328125 110.9609375  C 13.10546875 111.653645833333  13.984375 112  15 112  L 75 112  C 76.015625 112  76.89453125 111.653645833333  77.63671875 110.9609375  Z M 54.375 18  C 55.625 17.5  56.25 16.9166666666667  56.25 15.75  C 56.25 14.5833333333333  55.625 14  54.375 14  L 35.625 14  C 34.375 14  33.75 14.5833333333333  33.75 15.75  C 33.75 16.9166666666667  34.375 17.5  35.625 18  L 54.375 18  Z M 85.546875 4.15625  C 88.515625 6.92708333333333  90 10.2083333333333  90 14  L 90 126  C 90 129.791666666667  88.515625 133.072916666667  85.546875 135.84375  C 82.578125 138.614583333333  79.0625 140  75 140  L 15 140  C 10.9375 140  7.421875 138.614583333333  4.453125 135.84375  C 1.484375 133.072916666667  0 129.791666666667  0 126  L 0 14  C 0 10.2083333333333  1.484375 6.92708333333333  4.453125 4.15625  C 7.421875 1.38541666666665  10.9375 0  15 0  L 75 0  C 79.0625 0  82.578125 1.38541666666665  85.546875 4.15625  Z " fill-rule="nonzero" fill="#02a7f0" stroke="none" transform="matrix(1 0 0 1 348 400 )" />
  </g>
</svg>