<?xml version="1.0" encoding="utf-8"?>
<svg version="1.1" xmlns:xlink="http://www.w3.org/1999/xlink" width="305px" height="170px" xmlns="http://www.w3.org/2000/svg">
  <g transform="matrix(1 0 0 1 -353 -590 )">
    <path d="M 151.15966796875 98.0045572916667  C 152.05322265625 101.952039930556  152.5 106.286892361111  152.5 111.009114583333  C 152.5 115.731336805556  150.663248697917 119.660373263889  146.98974609375 122.796223958333  C 143.316243489583 125.932074652778  138.798828125 127.5  133.4375 127  L 57.1875 127  C 51.826171875 127.5  47.3087565104167 125.932074652778  43.63525390625 122.796223958333  C 39.9617513020833 119.660373263889  38.125 115.731336805556  38.125 111.009114583333  C 38.125 106.286892361111  38.57177734375 101.952039930556  39.46533203125 98.0045572916667  C 40.35888671875 94.0570746527778  41.8233235677083 90.2571614583333  43.858642578125 86.6048177083333  C 45.8939615885417 82.9524739583333  48.8972981770833 80.0748697916667  52.86865234375 77.9720052083333  C 56.8400065104167 75.869140625  61.6552734375 74.8177083333333  67.314453125 74.8177083333333  C 67.91015625 75.1128472222222  69.3994140625 75.7769097222222  71.7822265625 76.8098958333333  C 74.1650390625 77.8428819444444  76.026611328125 78.6360677083333  77.366943359375 79.189453125  C 78.707275390625 79.7428385416667  80.4695638020833 80.3884548611111  82.65380859375 81.1263020833333  C 84.8380533854167 81.8641493055556  86.97265625 82.3990885416667  89.0576171875 82.7311197916667  C 91.142578125 83.0631510416667  93.2275390625 83.2291666666667  95.3125 83.2291666666667  C 97.3974609375 83.2291666666667  99.482421875 83.0631510416667  101.5673828125 82.7311197916667  C 103.65234375 82.3990885416667  105.786946614583 81.8641493055556  107.97119140625 81.1263020833333  C 110.155436197917 80.3884548611111  111.917724609375 79.7428385416667  113.258056640625 79.189453125  C 114.598388671875 78.6360677083333  116.4599609375 77.8428819444444  118.8427734375 76.8098958333333  C 121.2255859375 75.7769097222222  122.71484375 75.1128472222222  123.310546875 74.8177083333333  C 128.9697265625 74.8177083333333  133.784993489583 75.869140625  137.75634765625 77.9720052083333  C 141.727701822917 80.0748697916667  144.731038411458 82.9524739583333  146.766357421875 86.6048177083333  C 148.801676432292 90.2571614583333  150.26611328125 94.0570746527778  151.15966796875 98.0045572916667  Z M 119.215087890625 35.693359375  C 125.817464192708 40.6000434027778  129.11865234375 46.5212673611111  129.11865234375 53.45703125  C 129.11865234375 60.3927951388889  125.817464192708 66.3140190972222  119.215087890625 71.220703125  C 112.612711588542 76.1273871527778  104.645182291667 78.5807291666667  95.3125 78.5807291666667  C 85.9798177083333 78.5807291666667  78.0122884114583 76.1273871527778  71.409912109375 71.220703125  C 64.8075358072917 66.3140190972222  61.50634765625 60.3927951388889  61.50634765625 53.45703125  C 61.50634765625 46.5212673611111  64.8075358072917 40.6000434027778  71.409912109375 35.693359375  C 78.0122884114583 30.7866753472222  85.9798177083333 28.3333333333333  95.3125 28.3333333333333  C 104.645182291667 28.3333333333333  112.612711588542 30.7866753472222  119.215087890625 35.693359375  Z M 265.53466796875 100.162760416667  C 266.42822265625 100.826822916667  266.875 101.675347222222  266.875 102.708333333333  L 266.875 109.791666666667  C 266.875 110.824652777778  266.42822265625 111.673177083333  265.53466796875 112.337239583333  C 264.64111328125 113.001302083333  263.499348958333 113.333333333333  262.109375 113  L 176.328125 113  C 174.938151041667 113.333333333333  173.79638671875 113.001302083333  172.90283203125 112.337239583333  C 172.00927734375 111.673177083333  171.5625 110.824652777778  171.5625 109.791666666667  L 171.5625 102.708333333333  C 171.5625 101.675347222222  172.00927734375 100.826822916667  172.90283203125 100.162760416667  C 173.79638671875 99.4986979166667  174.938151041667 99.1666666666667  176.328125 99  L 262.109375 99  C 263.499348958333 99.1666666666667  264.64111328125 99.4986979166667  265.53466796875 100.162760416667  Z M 265.311279296875 71.9954427083333  C 266.353759765625 72.7701822916667  266.875 73.7109375  266.875 74.8177083333333  L 266.875 81.015625  C 266.875 82.1223958333333  266.353759765625 83.0631510416667  265.311279296875 83.837890625  C 264.268798828125 84.6126302083333  263.0029296875 85  261.513671875 85  L 176.923828125 85  C 175.4345703125 85  174.168701171875 84.6126302083333  173.126220703125 83.837890625  C 172.083740234375 83.0631510416667  171.5625 82.1223958333333  171.5625 81.015625  L 171.5625 74.8177083333333  C 171.5625 73.7109375  172.083740234375 72.7701822916667  173.126220703125 71.9954427083333  C 174.168701171875 71.220703125  175.4345703125 70.8333333333333  176.923828125 71  L 261.513671875 71  C 263.0029296875 70.8333333333333  264.268798828125 71.220703125  265.311279296875 71.9954427083333  Z M 265.53466796875 43.49609375  C 266.42822265625 44.16015625  266.875 45.0086805555555  266.875 46.0416666666667  L 266.875 53.125  C 266.875 54.1579861111111  266.42822265625 55.0065104166667  265.53466796875 55.6705729166667  C 264.64111328125 56.3346354166667  263.499348958333 56.6666666666667  262.109375 57  L 176.328125 57  C 174.938151041667 56.6666666666667  173.79638671875 56.3346354166667  172.90283203125 55.6705729166667  C 172.00927734375 55.0065104166667  171.5625 54.1579861111111  171.5625 53.125  L 171.5625 46.0416666666667  C 171.5625 45.0086805555555  172.00927734375 44.16015625  172.90283203125 43.49609375  C 173.79638671875 42.83203125  174.938151041667 42.5  176.328125 43  L 262.109375 43  C 263.499348958333 42.5  264.64111328125 42.83203125  265.53466796875 43.49609375  Z M 284.522705078125 154.781901041667  C 285.465901692708 154.080946180556  285.9375 153.250868055556  286 152.291666666667  L 286 17.7083333333333  C 285.9375 16.7491319444444  285.465901692708 15.9190538194444  284.522705078125 15.2180989583333  C 283.579508463542 14.5171440972222  282.462565104167 14.1666666666667  281.171875 15  L 23.828125 15  C 22.5374348958333 14.1666666666667  21.4204915364583 14.5171440972222  20.477294921875 15.2180989583333  C 19.5340983072917 15.9190538194444  19.0625 16.7491319444444  19 17.7083333333333  L 19 152.291666666667  C 19.0625 153.250868055556  19.5340983072917 154.080946180556  20.477294921875 154.781901041667  C 21.4204915364583 155.482855902778  22.5374348958333 155.833333333333  23.828125 155  L 76.25 155  L 76.25 145.208333333333  C 76.25 144.175347222222  76.69677734375 143.326822916667  77.59033203125 142.662760416667  C 78.48388671875 141.998697916667  79.6256510416667 141.666666666667  81.015625 141.666666666667  L 90.546875 141.666666666667  C 91.9368489583333 141.666666666667  93.07861328125 141.998697916667  93.97216796875 142.662760416667  C 94.86572265625 143.326822916667  95.3125 144.175347222222  96 145.208333333333  L 96 155  L 209.6875 155  L 209.6875 145.208333333333  C 209.6875 144.175347222222  210.13427734375 143.326822916667  211.02783203125 142.662760416667  C 211.92138671875 141.998697916667  213.063151041667 141.666666666667  214.453125 141.666666666667  L 223.984375 141.666666666667  C 225.374348958333 141.666666666667  226.51611328125 141.998697916667  227.40966796875 142.662760416667  C 228.30322265625 143.326822916667  228.75 144.175347222222  228 145.208333333333  L 228 155  L 281.171875 155  C 282.462565104167 155.833333333333  283.579508463542 155.482855902778  284.522705078125 154.781901041667  Z M 298.00048828125 5.20182291666667  C 302.666829427083 8.6697048611111  305 12.8385416666667  305 17.7083333333333  L 305 152.291666666667  C 305 157.161458333333  302.666829427083 161.330295138889  298.00048828125 164.798177083333  C 293.334147135417 168.266059027778  287.724609375 170  281.171875 170  L 23.828125 170  C 17.275390625 170  11.6658528645833 168.266059027778  6.99951171875 164.798177083333  C 2.33317057291667 161.330295138889  0 157.161458333333  0 152.291666666667  L 0 17.7083333333333  C 0 12.8385416666667  2.33317057291667 8.6697048611111  6.99951171875 5.20182291666667  C 11.6658528645833 1.73394097222221  17.275390625 0  23.828125 0  L 281.171875 0  C 287.724609375 0  293.334147135417 1.73394097222221  298.00048828125 5.20182291666667  Z " fill-rule="nonzero" fill="#aaaaaa" stroke="none" transform="matrix(1 0 0 1 353 590 )" />
  </g>
</svg>