<?xml version="1.0" encoding="utf-8"?>
<svg version="1.1" xmlns:xlink="http://www.w3.org/1999/xlink" width="308px" height="160px" xmlns="http://www.w3.org/2000/svg">
  <g transform="matrix(1 0 0 1 -350 -380 )">
    <path d="M 133.6220703125 102.447916666667  C 134.3740234375 105.677083333333  134.75 109.166666666667  134.75 112.916666666667  C 134.75 116.736111111111  133.1708984375 119.982638888889  130.0126953125 122.65625  C 126.8544921875 125.329861111111  123.069661458333 126.666666666667  118.658203125 126  L 54.591796875 126  C 50.1803385416667 126.666666666667  46.3955078125 125.329861111111  43.2373046875 122.65625  C 40.0791015625 119.982638888889  38.5 116.736111111111  38.5 112.916666666667  C 38.5 109.166666666667  38.8759765625 105.677083333333  39.6279296875 102.447916666667  C 40.3798828125 99.21875  41.6080729166667 96.09375  43.3125 93.0729166666667  C 45.0169270833333 90.0520833333333  47.5735677083333 87.6736111111111  50.982421875 85.9375  C 54.3912760416667 84.2013888888889  58.4518229166667 83.3333333333333  63.1640625 83.3333333333333  C 69.5807291666667 87.7777777777778  77.4010416666667 90  86.625 90  C 95.8489583333333 90  103.669270833333 87.7777777777778  110.0859375 83.3333333333333  C 114.798177083333 83.3333333333333  118.858723958333 84.2013888888889  122.267578125 85.9375  C 125.676432291667 87.6736111111111  128.233072916667 90.0520833333333  129.9375 93.0729166666667  C 131.641927083333 96.09375  132.8701171875 99.21875  133.6220703125 102.447916666667  Z M 107.078125 52.5  C 112.692708333333 56.3888888888889  115.5 61.1111111111111  115.5 66.6666666666667  C 115.5 72.2222222222222  112.692708333333 76.9444444444444  107.078125 80.8333333333333  C 101.463541666667 84.7222222222222  94.6458333333333 86.6666666666667  86.625 86.6666666666667  C 78.6041666666667 86.6666666666667  71.7864583333333 84.7222222222222  66.171875 80.8333333333333  C 60.5572916666667 76.9444444444444  57.75 72.2222222222222  57.75 66.6666666666667  C 57.75 61.1111111111111  60.5572916666667 56.3888888888889  66.171875 52.5  C 71.7864583333333 48.6111111111111  78.6041666666667 46.6666666666667  86.625 46.6666666666667  C 94.6458333333333 46.6666666666667  101.463541666667 48.6111111111111  107.078125 52.5  Z M 268.146484375 107.604166666667  C 269.048828125 108.229166666667  269.5 109.027777777778  269.5 110  L 269.5 116.666666666667  C 269.5 117.638888888889  269.048828125 118.4375  268.146484375 119.0625  C 267.244140625 119.6875  266.091145833333 120  264.6875 120  L 158.8125 120  C 157.408854166667 120  156.255859375 119.6875  155.353515625 119.0625  C 154.451171875 118.4375  154 117.638888888889  154 116.666666666667  L 154 110  C 154 109.027777777778  154.451171875 108.229166666667  155.353515625 107.604166666667  C 156.255859375 106.979166666667  157.408854166667 106.666666666667  158.8125 106  L 264.6875 106  C 266.091145833333 106.666666666667  267.244140625 106.979166666667  268.146484375 107.604166666667  Z M 210.396484375 80.9375  C 211.298828125 81.5625  211.75 82.3611111111111  211.75 83.3333333333333  L 211.75 90  C 211.75 90.9722222222222  211.298828125 91.7708333333333  210.396484375 92.3958333333333  C 209.494140625 93.0208333333333  208.341145833333 93.3333333333333  206.9375 93  L 158.8125 93  C 157.408854166667 93.3333333333333  156.255859375 93.0208333333333  155.353515625 92.3958333333333  C 154.451171875 91.7708333333333  154 90.9722222222222  154 90  L 154 83.3333333333333  C 154 82.3611111111111  154.451171875 81.5625  155.353515625 80.9375  C 156.255859375 80.3125  157.408854166667 80  158.8125 80  L 206.9375 80  C 208.341145833333 80  209.494140625 80.3125  210.396484375 80.9375  Z M 268.146484375 80.9375  C 269.048828125 81.5625  269.5 82.3611111111111  269.5 83.3333333333333  L 269.5 90  C 269.5 90.9722222222222  269.048828125 91.7708333333333  268.146484375 92.3958333333333  C 267.244140625 93.0208333333333  266.091145833333 93.3333333333333  264.6875 93  L 235.8125 93  C 234.408854166667 93.3333333333333  233.255859375 93.0208333333333  232.353515625 92.3958333333333  C 231.451171875 91.7708333333333  231 90.9722222222222  231 90  L 231 83.3333333333333  C 231 82.3611111111111  231.451171875 81.5625  232.353515625 80.9375  C 233.255859375 80.3125  234.408854166667 80  235.8125 80  L 264.6875 80  C 266.091145833333 80  267.244140625 80.3125  268.146484375 80.9375  Z M 268.146484375 54.2708333333333  C 269.048828125 54.8958333333333  269.5 55.6944444444444  269.5 56.6666666666667  L 269.5 63.3333333333333  C 269.5 64.3055555555556  269.048828125 65.1041666666667  268.146484375 65.7291666666667  C 267.244140625 66.3541666666667  266.091145833333 66.6666666666667  264.6875 67  L 158.8125 67  C 157.408854166667 66.6666666666667  156.255859375 66.3541666666667  155.353515625 65.7291666666667  C 154.451171875 65.1041666666667  154 64.3055555555556  154 63.3333333333333  L 154 56.6666666666667  C 154 55.6944444444444  154.451171875 54.8958333333333  155.353515625 54.2708333333333  C 156.255859375 53.6458333333333  157.408854166667 53.3333333333333  158.8125 54  L 264.6875 54  C 266.091145833333 53.3333333333333  267.244140625 53.6458333333333  268.146484375 54.2708333333333  Z M 287.3212890625 145.677083333333  C 288.273763020833 145.017361111111  288.75 144.236111111111  288 143.333333333333  L 288 27  L 20 27  L 20 143.333333333333  C 19.25 144.236111111111  19.7262369791667 145.017361111111  20.6787109375 145.677083333333  C 21.6311848958333 146.336805555556  22.7591145833333 146.666666666667  24.0625 146  L 283.9375 146  C 285.240885416667 146.666666666667  286.368815104167 146.336805555556  287.3212890625 145.677083333333  Z M 300.931640625 4.89583333333334  C 305.643880208333 8.15972222222221  308 12.0833333333333  308 16.6666666666667  L 308 143.333333333333  C 308 147.916666666667  305.643880208333 151.840277777778  300.931640625 155.104166666667  C 296.219401041667 158.368055555556  290.5546875 160  283.9375 160  L 24.0625 160  C 17.4453125 160  11.7805989583333 158.368055555556  7.068359375 155.104166666667  C 2.35611979166667 151.840277777778  0 147.916666666667  0 143.333333333333  L 0 16.6666666666667  C 0 12.0833333333333  2.35611979166667 8.15972222222221  7.068359375 4.89583333333334  C 11.7805989583333 1.63194444444443  17.4453125 0  24.0625 0  L 283.9375 0  C 290.5546875 0  296.219401041667 1.63194444444443  300.931640625 4.89583333333334  Z " fill-rule="nonzero" fill="#aaaaaa" stroke="none" transform="matrix(1 0 0 1 350 380 )" />
  </g>
</svg>