<?xml version="1.0" encoding="utf-8"?>
<svg version="1.1" xmlns:xlink="http://www.w3.org/1999/xlink" width="10px" height="10px" xmlns="http://www.w3.org/2000/svg">
  <g transform="matrix(1 0 0 1 -4 -2 )">
    <path d="M 9 2  C 11.8 2  14 4.2  14 7  C 14 9.8  11.8 12  9 12  C 6.2 12  4 9.8  4 7  C 4 4.2  6.2 2  9 2  Z " fill-rule="nonzero" fill="#ffffff" stroke="none" />
    <path d="M 9 2.5  C 11.52 2.5  13.5 4.48  13.5 7  C 13.5 9.52  11.52 11.5  9 11.5  C 6.48 11.5  4.5 9.52  4.5 7  C 4.5 4.48  6.48 2.5  9 2.5  Z " stroke-width="1" stroke="#797979" fill="none" />
  </g>
</svg>