<?xml version="1.0" encoding="utf-8"?>
<svg version="1.1" xmlns:xlink="http://www.w3.org/1999/xlink" width="13px" height="13px" xmlns="http://www.w3.org/2000/svg">
  <g transform="matrix(1 0 0 1 -215 -20 )">
    <path d="M 221.5 21  C 224.58 21  227 23.42  227 26.5  C 227 29.58  224.58 32  221.5 32  C 218.42 32  216 29.58  216 26.5  C 216 23.42  218.42 21  221.5 21  Z " fill-rule="nonzero" fill="#ffffff" stroke="none" />
    <path d="M 221.5 21  C 224.58 21  227 23.42  227 26.5  C 227 29.58  224.58 32  221.5 32  C 218.42 32  216 29.58  216 26.5  C 216 23.42  218.42 21  221.5 21  Z " stroke-width="2" stroke="#797979" fill="none" />
  </g>
</svg>