<?xml version="1.0" encoding="utf-8"?>
<svg version="1.1" xmlns:xlink="http://www.w3.org/1999/xlink" width="60px" height="35px" xmlns="http://www.w3.org/2000/svg">
  <g transform="matrix(1 0 0 1 -326 -353 )">
    <path d="M 24 21.875  L 24 24  L 36 24  L 36 21.875  L 32 21.875  L 32 9.625  L 28.4375 9.625  L 23.8125 13.37109375  L 26.21875 15.55859375  C 27.09375 14.8841145833333  27.6666666666667 14.3645833333333  27.9375 14  L 28 14  L 28 21.875  L 24 21.875  Z M 39.34375 13.6171875  C 39.78125 14.9296875  40 16.2239583333333  40 17.5  C 40 18.7760416666667  39.78125 20.0703125  39.34375 21.3828125  C 38.90625 22.6953125  38.2864583333333 23.9166666666667  37.484375 25.046875  C 36.6822916666667 26.1770833333333  35.625 27.09765625  34.3125 27.80859375  C 33 28.51953125  31.5625 28.875  30 28.875  C 28.4375 28.875  27 28.51953125  25.6875 27.80859375  C 24.375 27.09765625  23.3177083333333 26.1770833333333  22.515625 25.046875  C 21.7135416666667 23.9166666666667  21.09375 22.6953125  20.65625 21.3828125  C 20.21875 20.0703125  20 18.7760416666667  20 17.5  C 20 16.2239583333333  20.21875 14.9296875  20.65625 13.6171875  C 21.09375 12.3046875  21.7135416666667 11.0833333333333  22.515625 9.953125  C 23.3177083333333 8.82291666666666  24.375 7.90234375  25.6875 7.19140625  C 27 6.48046875  28.4375 6.125  30 6.125  C 31.5625 6.125  33 6.48046875  34.3125 7.19140625  C 35.625 7.90234375  36.6822916666667 8.82291666666666  37.484375 9.953125  C 38.2864583333333 11.0833333333333  38.90625 12.3046875  39.34375 13.6171875  Z M 50.34375 26.55078125  C 51.90625 25.18359375  53.7916666666667 24.5  56 24.5  L 56 10.5  C 53.7916666666667 10.5  51.90625 9.81640625  50.34375 8.44921875  C 48.78125 7.08203125  48 5.43229166666666  48 4  L 12 4  C 12 5.43229166666666  11.21875 7.08203125  9.65625 8.44921875  C 8.09375 9.81640625  6.20833333333333 10.5  4 10.5  L 4 24.5  C 6.20833333333333 24.5  8.09375 25.18359375  9.65625 26.55078125  C 11.21875 27.91796875  12 29.5677083333333  12 31  L 48 31  C 48 29.5677083333333  48.78125 27.91796875  50.34375 26.55078125  Z M 59.40625 0.519531250000002  C 59.8020833333333 0.865885416666664  60 1.27604166666666  60 1.75  L 60 33.25  C 60 33.7239583333333  59.8020833333333 34.1341145833333  59.40625 34.48046875  C 59.0104166666667 34.8268229166667  58.5416666666667 35  58 35  L 2 35  C 1.45833333333333 35  0.989583333333333 34.8268229166667  0.59375 34.48046875  C 0.197916666666667 34.1341145833333  0 33.7239583333333  0 33.25  L 0 1.75  C 0 1.27604166666666  0.197916666666667 0.865885416666664  0.59375 0.519531250000002  C 0.989583333333333 0.173177083333331  1.45833333333333 0  2 0  L 58 0  C 58.5416666666667 0  59.0104166666667 0.173177083333331  59.40625 0.519531250000002  Z " fill-rule="nonzero" fill="#00bfbf" stroke="none" transform="matrix(1 0 0 1 326 353 )" />
  </g>
</svg>