<?xml version="1.0" encoding="iso-8859-1"?>
<!-- Generator: Adobe Illustrator 19.0.0, SVG Export Plug-In . SVG Version: 6.00 Build 0)  -->
<svg xmlns="http://www.w3.org/2000/svg" xmlns:xlink="http://www.w3.org/1999/xlink" version="1.1" id="Layer_1" x="0px" y="0px" viewBox="0 0 439.48 439.48" style="enable-background:new 0 0 439.48 439.48;" xml:space="preserve" width="512" height="512">
<g>
	<g>
		<polygon style="fill:#1E79C4;" points="64.405,191.814 64.405,221.814 36.405,245.484 36.405,386.484 69.075,386.484     122.245,324.094 112.245,239.594 97.075,191.814   "/>
		<path style="fill:#D82525;" d="M160.075,191.814h35c-3.87,0,8.7,24.75,6.17,27.28c-2.53,2.54-11,10.64-11,14.5    c0,5.07-8.42,12.51-10.5,17c-2.09,4.5-22.13,34.73-26,38l-27.5-19l9.27-38.95c6.73-6.48,10.56-15.44,10.56-24.83    c0-3.86,1.57-7.36,4.1-9.9C152.705,193.384,156.205,191.814,160.075,191.814z"/>
		<polygon style="fill:#3B9DFF;" points="135.515,230.644 153.075,245.484 162.745,302.594 153.075,386.484 120.405,386.484     69.075,386.484 69.075,245.484 97.075,221.814 97.075,191.814 109.405,191.814 125.075,191.814 125.075,221.814   "/>
		<path style="fill:#07A521;" d="M232.405,191.814v30l-11.66,9.86c0.18,0.16-9.68,12.76-9.5,12.92l29.5,23l39-37l-14.67-38.78    H232.405z"/>
		<path style="fill:#ED2E2E;" d="M237.075,245.484l7.67,58.61l-7.67,82.39h-36.34h-47.66v-141l15.78-13.34    c3.87-3.27,6.93-7.32,9.02-11.82c2.08-4.49,3.2-9.44,3.2-14.51c0-3.86,1.57-7.36,4.1-9.9c2.53-2.53,6.03-4.1,9.9-4.1    c7.73,0,14,6.27,14,14c0,9.9,4.26,19.32,11.67,25.86c0.18,0.16,0.37,0.31,0.55,0.47L237.075,245.484z"/>
		<path style="fill:#EAB932;" d="M330.405,191.814c-11.41,0-20.65,9.24-20.66,20.66v0.01h-16.67l-15.33,26.11l42.5,31l20.5-35.5    l24-11.5c0-11.41-13.08-30.78-1.67-30.78H330.405z"/>
		<polygon style="fill:#0FBC30;" points="321.075,245.484 330.745,309.594 321.075,386.484 284.735,386.484 237.075,386.484     237.075,245.484 265.075,221.814 265.075,191.814 277.405,191.814 293.075,191.814 293.075,212.484 293.075,221.814   "/>
		<path style="fill:#FFD039;" d="M405.075,212.474v174.01h-36.34h-47.66v-141v-33.01h21.33c0-11.41,9.26-20.66,20.67-20.66    s20.67,9.25,20.67,20.66H405.075z"/>
		<g>
			<path style="fill:#4D4D4D;" d="M95.408,250.312c-4.143,0-7.5,3.358-7.5,7.5v16c0,4.142,3.357,7.5,7.5,7.5s7.5-3.358,7.5-7.5v-16     C102.908,253.67,99.551,250.312,95.408,250.312z"/>
			<path style="fill:#4D4D4D;" d="M126.742,281.312c4.143,0,7.5-3.358,7.5-7.5v-16c0-4.142-3.357-7.5-7.5-7.5     c-4.143,0-7.5,3.358-7.5,7.5v16C119.242,277.954,122.599,281.312,126.742,281.312z"/>
			<path style="fill:#4D4D4D;" d="M95.408,328.978c-4.143,0-7.5,3.358-7.5,7.5v16c0,4.142,3.357,7.5,7.5,7.5s7.5-3.358,7.5-7.5v-16     C102.908,332.336,99.551,328.978,95.408,328.978z"/>
			<path style="fill:#4D4D4D;" d="M126.742,359.978c4.143,0,7.5-3.358,7.5-7.5v-16c0-4.142-3.357-7.5-7.5-7.5     c-4.143,0-7.5,3.358-7.5,7.5v16C119.242,356.62,122.599,359.978,126.742,359.978z"/>
			<path style="fill:#4D4D4D;" d="M95.408,289.645c-4.143,0-7.5,3.358-7.5,7.5v16c0,4.142,3.357,7.5,7.5,7.5s7.5-3.358,7.5-7.5v-16     C102.908,293.003,99.551,289.645,95.408,289.645z"/>
			<path style="fill:#4D4D4D;" d="M126.742,320.645c4.143,0,7.5-3.358,7.5-7.5v-16c0-4.142-3.357-7.5-7.5-7.5     c-4.143,0-7.5,3.358-7.5,7.5v16C119.242,317.287,122.599,320.645,126.742,320.645z"/>
			<path style="fill:#4D4D4D;" d="M179.408,250.312c-4.143,0-7.5,3.358-7.5,7.5v16c0,4.142,3.357,7.5,7.5,7.5s7.5-3.358,7.5-7.5v-16     C186.908,253.67,183.551,250.312,179.408,250.312z"/>
			<path style="fill:#4D4D4D;" d="M210.742,281.312c4.143,0,7.5-3.358,7.5-7.5v-16c0-4.142-3.357-7.5-7.5-7.5s-7.5,3.358-7.5,7.5v16     C203.242,277.954,206.599,281.312,210.742,281.312z"/>
			<path style="fill:#4D4D4D;" d="M179.408,328.978c-4.143,0-7.5,3.358-7.5,7.5v16c0,4.142,3.357,7.5,7.5,7.5s7.5-3.358,7.5-7.5v-16     C186.908,332.336,183.551,328.978,179.408,328.978z"/>
			<path style="fill:#4D4D4D;" d="M210.742,359.978c4.143,0,7.5-3.358,7.5-7.5v-16c0-4.142-3.357-7.5-7.5-7.5s-7.5,3.358-7.5,7.5v16     C203.242,356.62,206.599,359.978,210.742,359.978z"/>
			<path style="fill:#4D4D4D;" d="M179.408,289.645c-4.143,0-7.5,3.358-7.5,7.5v16c0,4.142,3.357,7.5,7.5,7.5s7.5-3.358,7.5-7.5v-16     C186.908,293.003,183.551,289.645,179.408,289.645z"/>
			<path style="fill:#4D4D4D;" d="M210.742,320.645c4.143,0,7.5-3.358,7.5-7.5v-16c0-4.142-3.357-7.5-7.5-7.5s-7.5,3.358-7.5,7.5v16     C203.242,317.287,206.599,320.645,210.742,320.645z"/>
			<path style="fill:#4D4D4D;" d="M263.408,250.312c-4.143,0-7.5,3.358-7.5,7.5v16c0,4.142,3.357,7.5,7.5,7.5s7.5-3.358,7.5-7.5v-16     C270.908,253.67,267.551,250.312,263.408,250.312z"/>
			<path style="fill:#4D4D4D;" d="M294.742,281.312c4.143,0,7.5-3.358,7.5-7.5v-16c0-4.142-3.357-7.5-7.5-7.5s-7.5,3.358-7.5,7.5v16     C287.242,277.954,290.599,281.312,294.742,281.312z"/>
			<path style="fill:#4D4D4D;" d="M263.408,328.978c-4.143,0-7.5,3.358-7.5,7.5v16c0,4.142,3.357,7.5,7.5,7.5s7.5-3.358,7.5-7.5v-16     C270.908,332.336,267.551,328.978,263.408,328.978z"/>
			<path style="fill:#4D4D4D;" d="M294.742,359.978c4.143,0,7.5-3.358,7.5-7.5v-16c0-4.142-3.357-7.5-7.5-7.5s-7.5,3.358-7.5,7.5v16     C287.242,356.62,290.599,359.978,294.742,359.978z"/>
			<path style="fill:#4D4D4D;" d="M263.408,289.645c-4.143,0-7.5,3.358-7.5,7.5v16c0,4.142,3.357,7.5,7.5,7.5s7.5-3.358,7.5-7.5v-16     C270.908,293.003,267.551,289.645,263.408,289.645z"/>
			<path style="fill:#4D4D4D;" d="M294.742,320.645c4.143,0,7.5-3.358,7.5-7.5v-16c0-4.142-3.357-7.5-7.5-7.5s-7.5,3.358-7.5,7.5v16     C287.242,317.287,290.599,320.645,294.742,320.645z"/>
			<path style="fill:#4D4D4D;" d="M347.408,250.312c-4.143,0-7.5,3.358-7.5,7.5v16c0,4.142,3.357,7.5,7.5,7.5s7.5-3.358,7.5-7.5v-16     C354.908,253.67,351.551,250.312,347.408,250.312z"/>
			<path style="fill:#4D4D4D;" d="M378.742,281.312c4.143,0,7.5-3.358,7.5-7.5v-16c0-4.142-3.357-7.5-7.5-7.5s-7.5,3.358-7.5,7.5v16     C371.242,277.954,374.599,281.312,378.742,281.312z"/>
			<path style="fill:#4D4D4D;" d="M347.408,328.978c-4.143,0-7.5,3.358-7.5,7.5v16c0,4.142,3.357,7.5,7.5,7.5s7.5-3.358,7.5-7.5v-16     C354.908,332.336,351.551,328.978,347.408,328.978z"/>
			<path style="fill:#4D4D4D;" d="M378.742,359.978c4.143,0,7.5-3.358,7.5-7.5v-16c0-4.142-3.357-7.5-7.5-7.5s-7.5,3.358-7.5,7.5v16     C371.242,356.62,374.599,359.978,378.742,359.978z"/>
			<path style="fill:#4D4D4D;" d="M347.408,289.645c-4.143,0-7.5,3.358-7.5,7.5v16c0,4.142,3.357,7.5,7.5,7.5s7.5-3.358,7.5-7.5v-16     C354.908,293.003,351.551,289.645,347.408,289.645z"/>
			<path style="fill:#4D4D4D;" d="M378.742,320.645c4.143,0,7.5-3.358,7.5-7.5v-16c0-4.142-3.357-7.5-7.5-7.5s-7.5,3.358-7.5,7.5v16     C371.242,317.287,374.599,320.645,378.742,320.645z"/>
			<circle style="fill:#4D4D4D;" cx="363.075" cy="212.644" r="7.5"/>
		</g>
		<circle style="fill:#EAB932;" cx="131.785" cy="81.914" r="50.25"/>
		<path style="fill:#FFD039;" d="M182.035,81.924c0,27.75-22.5,50.24-50.25,50.24c-4.47,0-8.81-0.58-12.94-1.68    c-8.21-7.91-13.31-19.01-13.31-31.31c0-24.03,19.48-43.5,43.5-43.5c12.3,0,23.4,5.1,31.32,13.31    C181.455,73.114,182.035,77.454,182.035,81.924z"/>
	</g>
	<g>
		<path style="fill:#CCCCCC;" d="M439.48,407.816H0c0-4.43,1.13-8.59,3.12-12.22c1.17-2.14,2.64-4.09,4.35-5.8    c4.61-4.62,10.99-7.47,18.03-7.47h388.48c9.65,0,18.05,5.36,22.38,13.27C438.35,399.226,439.48,403.386,439.48,407.816z"/>
		<path style="fill:#B3B3B3;" d="M439.48,407.816H0c0-4.43,1.13-8.59,3.12-12.22h433.24    C438.35,399.226,439.48,403.386,439.48,407.816z"/>
	</g>
</g>















</svg>
