<?xml version="1.0" encoding="iso-8859-1"?>
<!-- Generator: Adobe Illustrator 19.0.0, SVG Export Plug-In . SVG Version: 6.00 Build 0)  -->
<svg xmlns="http://www.w3.org/2000/svg" xmlns:xlink="http://www.w3.org/1999/xlink" version="1.1" id="Layer_1" x="0px" y="0px" viewBox="0 0 439.48 439.48" style="enable-background:new 0 0 439.48 439.48;" xml:space="preserve" width="512" height="512">
<g>
	<path style="fill:#EAB932;" d="M143.073,97.5c-8.5,0-20.463,28-19.313,28.66l-0.01,0.01c-9.21,11.34-23.27,18.58-39.01,18.58   c-27.75,0-50.25-22.5-50.25-50.25s22.5-50.25,50.25-50.25c17.49,0,32.9,8.94,41.89,22.5L143.073,97.5z"/>
	<path style="fill:#FFD039;" d="M134.99,94.51c0,27.75-22.5,50.24-50.25,50.24c-4.47,0-8.81-0.58-12.94-1.68   c-8.21-7.91-13.31-19.01-13.31-31.31c0-24.03,19.48-43.5,43.5-43.5c12.3,0,23.4,5.1,31.32,13.31   C134.41,85.7,134.99,90.04,134.99,94.51z"/>
	<g>
		<g>
			<rect x="41.122" y="300.179" style="fill:#7C4622;" width="16.891" height="90.651"/>
			<path style="fill:#0FBC30;" d="M89.262,246.406v25.337c0,21.925-17.77,39.695-39.695,39.695s-39.695-17.77-39.695-39.695v-25.337     c0-21.925,17.77-39.695,39.695-39.695c10.968,0,20.889,4.448,28.074,11.621C84.814,225.517,89.262,235.438,89.262,246.406z"/>
			<path style="fill:#562F15;" d="M58.013,300.179v24.999c-2.725,0.586-5.552,0.901-8.446,0.901s-5.721-0.315-8.446-0.901v-24.999     H58.013z"/>
			<path style="fill:#07A521;" d="M77.64,218.332c-5.933-5.923-13.734-9.98-22.448-11.217c4.207,6.301,6.667,13.872,6.667,22.024     v25.337c0,21.925-17.77,39.695-39.695,39.695c-1.91,0-3.786-0.143-5.624-0.404c7.118,10.653,19.25,17.671,33.025,17.671     c21.925,0,39.695-17.77,39.695-39.695v-25.337C89.262,235.438,84.814,225.517,77.64,218.332z"/>
			<circle style="fill:#ED2E2E;" cx="42.946" cy="249.809" r="8.446"/>
			<circle style="fill:#ED2E2E;" cx="57.101" cy="274.741" r="8.446"/>
		</g>
		<g>
			<rect x="268.018" y="300.177" style="fill:#7C4622;" width="16.891" height="90.647"/>
			<path style="fill:#0FBC30;" d="M316.159,246.406v25.337c0,21.925-17.77,39.695-39.695,39.695s-39.695-17.77-39.695-39.695     v-25.337c0-21.925,17.77-39.695,39.695-39.695c10.957,0,20.889,4.448,28.074,11.621     C311.722,225.517,316.159,235.438,316.159,246.406z"/>
			<path style="fill:#562F15;" d="M284.909,300.179v24.999c-2.725,0.586-5.552,0.901-8.446,0.901s-5.721-0.315-8.446-0.901v-24.999     H284.909z"/>
			<path style="fill:#07A521;" d="M304.538,218.332c-5.933-5.923-13.734-9.98-22.448-11.217c4.207,6.301,6.667,13.872,6.667,22.024     v25.337c0,21.925-17.77,39.695-39.695,39.695c-1.91,0-3.786-0.143-5.624-0.404c7.118,10.653,19.25,17.671,33.025,17.671     c21.925,0,39.695-17.77,39.695-39.695v-25.337C316.159,235.438,311.711,225.517,304.538,218.332z"/>
			<circle style="fill:#ED2E2E;" cx="282.793" cy="244.741" r="8.446"/>
			<circle style="fill:#ED2E2E;" cx="271.612" cy="278.119" r="8.446"/>
		</g>
		<g>
			<rect x="154.57" y="300.177" style="fill:#7C4622;" width="16.891" height="90.647"/>
			<path style="fill:#0FBC30;" d="M202.705,246.406v25.337c0,21.925-17.77,39.695-39.695,39.695     c-21.914,0-39.684-17.77-39.684-39.695v-25.337c0-21.925,17.77-39.695,39.684-39.695c10.968,0,20.889,4.448,28.074,11.621     C198.257,225.517,202.705,235.438,202.705,246.406z"/>
			<path style="fill:#562F15;" d="M171.461,300.179v24.999c-2.725,0.586-5.552,0.901-8.446,0.901s-5.721-0.315-8.446-0.901v-24.999     H171.461z"/>
			<path style="fill:#07A521;" d="M191.083,218.332c-5.933-5.923-13.734-9.98-22.448-11.217c4.207,6.301,6.667,13.872,6.667,22.024     v25.337c0,21.925-17.77,39.695-39.695,39.695c-1.91,0-3.786-0.143-5.624-0.404c7.118,10.653,19.25,17.671,33.025,17.671     c21.925,0,39.695-17.77,39.695-39.695v-25.337C202.705,235.438,198.257,225.517,191.083,218.332z"/>
			<circle style="fill:#ED2E2E;" cx="151.682" cy="256.16" r="8.446"/>
		</g>
		<g>
			<rect x="381.467" y="300.177" style="fill:#7C4622;" width="16.891" height="90.647"/>
			<path style="fill:#0FBC30;" d="M429.602,246.406v25.337c0,21.925-17.77,39.695-39.695,39.695     c-21.914,0-39.684-17.77-39.684-39.695v-25.337c0-21.925,17.77-39.695,39.684-39.695c10.957,0,20.889,4.448,28.074,11.621     C425.165,225.517,429.602,235.438,429.602,246.406z"/>
			<path style="fill:#562F15;" d="M398.358,300.179v24.999c-2.725,0.586-5.552,0.901-8.446,0.901c-2.894,0-5.721-0.315-8.446-0.901     v-24.999H398.358z"/>
			<path style="fill:#07A521;" d="M417.98,218.332c-5.933-5.923-13.734-9.98-22.448-11.217c4.207,6.301,6.667,13.872,6.667,22.024     v25.337c0,21.925-17.77,39.695-39.695,39.695c-1.91,0-3.786-0.143-5.624-0.404c7.118,10.653,19.25,17.671,33.025,17.671     c21.925,0,39.695-17.77,39.695-39.695v-25.337C429.602,235.438,425.154,225.517,417.98,218.332z"/>
			<circle style="fill:#ED2E2E;" cx="399.975" cy="281.497" r="8.446"/>
			<circle style="fill:#ED2E2E;" cx="374.402" cy="266.07" r="8.446"/>
			<circle style="fill:#ED2E2E;" cx="406.555" cy="241.697" r="8.446"/>
		</g>
	</g>
	<path style="fill:#0FBC30;" d="M439.48,395.23H0c0-4.43,1.13-8.59,3.12-12.22c1.17-2.14,2.64-4.09,4.35-5.8   c4.61-4.62,10.99-7.47,18.03-7.47h388.48c9.65,0,18.05,5.36,22.38,13.27C438.35,386.64,439.48,390.8,439.48,395.23z"/>
	<path style="fill:#3B9DFF;" d="M217.22,102c2.79,2.78,4.51,6.63,4.51,10.87c0,8.49-6.89,15.38-15.38,15.38h-74.86   c-2.82,0-5.46-0.76-7.73-2.09c-1.15-0.66-2.21-1.48-3.15-2.42c-2.78-2.78-4.5-6.63-4.5-10.87c0-8.49,6.88-15.37,15.38-15.37H87.37   c-4.25,0-8.09-1.72-10.87-4.5c-2.79-2.79-4.51-6.63-4.51-10.88c0-8.49,6.89-15.37,15.38-15.37h39.26h35.6   c4.25,0,8.09,1.72,10.88,4.5c2.78,2.78,4.5,6.62,4.5,10.87c0,8.5-6.88,15.38-15.38,15.38h44.12C210.6,97.5,214.44,99.22,217.22,102   z"/>
	<path style="fill:#07A521;" d="M439.48,395.23H0c0-4.43,1.13-8.59,3.12-12.22h433.24C438.35,386.64,439.48,390.8,439.48,395.23z"/>
</g>















</svg>
