<?xml version="1.0" encoding="utf-8"?>
<svg version="1.1" xmlns:xlink="http://www.w3.org/1999/xlink" width="36px" height="40px" xmlns="http://www.w3.org/2000/svg">
  <g transform="matrix(1 0 0 1 -371 -870 )">
    <path d="M 6.1640625 20.390625  L 12.0703125 20.390625  L 12.0703125 23.7239583333333  L 6.1640625 23.7239583333333  L 6.1640625 20.390625  Z M 6.1640625 13.75  L 12.0703125 13.75  L 12.0703125 17.0572916666667  L 6.1640625 17.0572916666667  L 6.1640625 13.75  Z M 21.84375 27.0572916666667  L 29.8359375 27.0572916666667  L 29.8359375 30.390625  L 21.84375 30.390625  L 21.84375 27.0572916666667  Z M 14.0859375 20  L 29.8359375 20  L 29.8359375 23  L 14.0859375 23  L 14.0859375 20  Z M 14.0859375 14  L 29.8359375 14  L 29.8359375 17  L 14.0859375 17  L 14.0859375 14  Z M 32.859375 36.5104166666667  C 32.953125 36.40625  33 36.2847222222222  33 36.1458333333333  L 33 3.85416666666667  C 33 3.71527777777777  32.953125 3.59375  32.859375 3.48958333333333  C 32.765625 3.38541666666667  32.65625 3.33333333333333  32.53125 3.33333333333333  L 31.78125 3.33333333333333  L 22.921875 10  L 18 5.546875  L 13.078125 10  L 4.21875 3.33333333333333  L 3.46875 3.33333333333333  C 3.34375 3.33333333333333  3.234375 3.38541666666667  3.140625 3.48958333333333  C 3.046875 3.59375  3 3.71527777777777  3 3.85416666666667  L 3 36.1458333333333  C 3 36.2847222222222  3.046875 36.40625  3.140625 36.5104166666667  C 3.234375 36.6145833333333  3.34375 36.6666666666667  3.46875 36  L 32.53125 36  C 32.65625 36.6666666666667  32.765625 36.6145833333333  32.859375 36.5104166666667  Z M 7.78125 3.33333333333333  L 12.9609375 7.23958333333333  L 17.296875 3.33333333333333  L 7.78125 3.33333333333333  Z M 18.703125 3.33333333333333  L 23.0390625 7.23958333333333  L 28.21875 3.33333333333333  L 18.703125 3.33333333333333  Z M 34.9921875 1.11979166666667  C 35.6640625 1.86631944444444  36 2.77777777777777  36 3.85416666666667  L 36 36.1458333333333  C 36 37.2222222222222  35.6640625 38.1336805555556  34.9921875 38.8802083333333  C 34.3203125 39.6267361111111  33.5 40  32.53125 40  L 3.46875 40  C 2.5 40  1.6796875 39.6267361111111  1.0078125 38.8802083333333  C 0.3359375 38.1336805555556  0 37.2222222222222  0 36.1458333333333  L 0 3.85416666666667  C 0 2.77777777777777  0.3359375 1.86631944444444  1.0078125 1.11979166666667  C 1.6796875 0.373263888888888  2.5 0  3.46875 0  L 32.53125 0  C 33.5 0  34.3203125 0.373263888888888  34.9921875 1.11979166666667  Z " fill-rule="nonzero" fill="#ec808d" stroke="none" transform="matrix(1 0 0 1 371 870 )" />
  </g>
</svg>