<?xml version="1.0" encoding="utf-8"?>
<svg version="1.1" xmlns:xlink="http://www.w3.org/1999/xlink" width="20px" height="29px" xmlns="http://www.w3.org/2000/svg">
  <g transform="matrix(1 0 0 1 -389 -744 )">
    <path d="M 12.265625 17.78515625  C 13.3193108974359 16.2573116987179  13.8461538461538 14.4186698717949  13.8461538461538 12.2692307692308  C 13.8461538461538 10.1197916666667  13.3193108974359 8.28114983974359  12.265625 6.75330528846154  C 11.2119391025641 5.22546073717949  9.94391025641026 4.46153846153846  8.46153846153846 4.46153846153846  C 6.97916666666667 4.46153846153846  5.71113782051282 5.22546073717949  4.65745192307692 6.75330528846154  C 3.60376602564103 8.28114983974359  3.07692307692308 10.1197916666667  3.07692307692308 12.2692307692308  C 3.07692307692308 14.4186698717949  3.60376602564103 16.2573116987179  4.65745192307692 17.78515625  C 5.71113782051282 19.313000801282  6.97916666666667 20.0769230769231  8.46153846153846 20.0769230769231  C 9.94391025641026 20.0769230769231  11.2119391025641 19.313000801282  12.265625 17.78515625  Z M 19.5552884615385 25.2007211538462  C 19.8517628205128 25.630608974359  20 26.1534455128205  20 26.7692307692308  C 20 27.3733974358974  19.8477564102564 27.896233974359  19.5432692307692 28.3377403846154  C 19.2387820512821 28.7792467948718  18.8782051282051 29  18.4615384615385 29  C 18.0288461538462 29  17.6682692307692 28.7792467948718  17.3798076923077 28.3377403846154  L 13.2572115384615 22.3774038461538  C 11.8229166666667 23.818108974359  10.224358974359 24.5384615384615  8.46153846153846 24.5384615384615  C 7.31570512820513 24.5384615384615  6.21995192307692 24.2160456730769  5.17427884615385 23.5712139423077  C 4.12860576923077 22.9263822115385  3.22716346153846 22.0549879807692  2.46995192307692 20.95703125  C 1.71274038461538 19.8590745192308  1.11177884615385 18.5519831730769  0.667067307692308 17.0357572115385  C 0.222355769230769 15.51953125  0 13.9306891025641  0 12.2692307692308  C 0 10.6077724358974  0.222355769230769 9.01893028846154  0.667067307692308 7.50270432692308  C 1.11177884615385 5.98647836538462  1.71274038461538 4.67938701923077  2.46995192307692 3.58143028846154  C 3.22716346153846 2.48347355769231  4.12860576923077 1.61207932692308  5.17427884615385 0.967247596153847  C 6.21995192307692 0.322415865384615  7.31570512820513 0  8.46153846153846 0  C 9.6073717948718 0  10.703125 0.322415865384615  11.7487980769231 0.967247596153847  C 12.7944711538462 1.61207932692308  13.6959134615385 2.48347355769231  14.453125 3.58143028846154  C 15.2103365384615 4.67938701923077  15.8112980769231 5.98647836538462  16.2560096153846 7.50270432692308  C 16.7007211538462 9.01893028846154  16.9230769230769 10.6077724358974  16.9230769230769 12.2692307692308  C 16.9230769230769 14.8253205128205  16.4262820512821 17.1432291666667  15.4326923076923 19.2229567307692  L 19.5552884615385 25.2007211538462  Z " fill-rule="nonzero" fill="#aaaaaa" stroke="none" transform="matrix(1 0 0 1 389 744 )" />
  </g>
</svg>