<?xml version="1.0" encoding="utf-8"?>
<svg version="1.1" xmlns:xlink="http://www.w3.org/1999/xlink" width="36px" height="40px" xmlns="http://www.w3.org/2000/svg">
  <g transform="matrix(1 0 0 1 -565 -874 )">
    <path d="M 35.7609375 28.9192708333333  C 35.9203125 30.2300347222222  36 31.6232638888889  36 33.0989583333333  C 36 34.9913194444444  35.4140625 36.6145833333333  34.2421875 37.96875  C 33.0703125 39.3229166666667  31.659375 40  30.009375 40  L 5.990625 40  C 4.340625 40  2.9296875 39.3229166666667  1.7578125 37.96875  C 0.5859375 36.6145833333333  0 34.9913194444444  0 33.0989583333333  C 0 31.6232638888889  0.0796875000000002 30.2300347222222  0.2390625 28.9192708333333  C 0.3984375 27.6085069444444  0.69375 26.2890625  1.125 24.9609375  C 1.55625 23.6328125  2.1046875 22.4956597222222  2.7703125 21.5494791666667  C 3.4359375 20.6032986111111  4.3171875 19.8307291666667  5.4140625 19.2317708333333  C 6.5109375 18.6328125  7.771875 18.3333333333333  9.196875 18.3333333333333  C 11.653125 20.5555555555556  14.5875 21.6666666666667  18 21.6666666666667  C 21.4125 21.6666666666667  24.346875 20.5555555555556  26.803125 18.3333333333333  C 28.228125 18.3333333333333  29.4890625 18.6328125  30.5859375 19.2317708333333  C 31.6828125 19.8307291666667  32.5640625 20.6032986111111  33.2296875 21.5494791666667  C 33.8953125 22.4956597222222  34.44375 23.6328125  34.875 24.9609375  C 35.30625 26.2890625  35.6015625 27.6085069444444  35.7609375 28.9192708333333  Z M 25.6359375 2.9296875  C 27.7453125 4.8828125  28.8 7.23958333333333  28.8 10  C 28.8 12.7604166666667  27.7453125 15.1171875  25.6359375 17.0703125  C 23.5265625 19.0234375  20.98125 20  18 20  C 15.01875 20  12.4734375 19.0234375  10.3640625 17.0703125  C 8.2546875 15.1171875  7.2 12.7604166666667  7.2 10  C 7.2 7.23958333333333  8.2546875 4.8828125  10.3640625 2.9296875  C 12.4734375 0.9765625  15.01875 0  18 0  C 20.98125 0  23.5265625 0.9765625  25.6359375 2.9296875  Z " fill-rule="nonzero" fill="#ec808d" stroke="none" transform="matrix(1 0 0 1 565 874 )" />
  </g>
</svg>