<?xml version="1.0" encoding="utf-8"?>
<svg version="1.1" xmlns:xlink="http://www.w3.org/1999/xlink" width="25px" height="25px" xmlns="http://www.w3.org/2000/svg">
  <g transform="matrix(1 0 0 1 -544 -408 )">
    <path d="M 19.482421875 14.2740885416667  C 19.6885850694444 14.0679253472222  19.7916666666667 13.8237847222222  19.7916666666667 13.5416666666667  L 19.7916666666667 11.4583333333333  C 19.7916666666667 11.1762152777778  19.6885850694444 10.9320746527778  19.482421875 10.7259114583333  C 19.2762586805556 10.5197482638889  19.0321180555556 10.4166666666667  18.75 10.4166666666667  L 14.5833333333333 10.4166666666667  L 14.5833333333333 6.25  C 14.5833333333333 5.96788194444444  14.4802517361111 5.72374131944444  14.2740885416667 5.517578125  C 14.0679253472222 5.31141493055556  13.8237847222222 5.20833333333333  13.5416666666667 5.20833333333333  L 11.4583333333333 5.20833333333333  C 11.1762152777778 5.20833333333333  10.9320746527778 5.31141493055556  10.7259114583333 5.517578125  C 10.5197482638889 5.72374131944444  10.4166666666667 5.96788194444444  10.4166666666667 6.25  L 10.4166666666667 10.4166666666667  L 6.25 10.4166666666667  C 5.96788194444444 10.4166666666667  5.72374131944444 10.5197482638889  5.517578125 10.7259114583333  C 5.31141493055556 10.9320746527778  5.20833333333333 11.1762152777778  5.20833333333333 11.4583333333333  L 5.20833333333333 13.5416666666667  C 5.20833333333333 13.8237847222222  5.31141493055556 14.0679253472222  5.517578125 14.2740885416667  C 5.72374131944444 14.4802517361111  5.96788194444444 14.5833333333333  6.25 14.5833333333333  L 10.4166666666667 14.5833333333333  L 10.4166666666667 18.75  C 10.4166666666667 19.0321180555556  10.5197482638889 19.2762586805556  10.7259114583333 19.482421875  C 10.9320746527778 19.6885850694444  11.1762152777778 19.7916666666667  11.4583333333333 19.7916666666667  L 13.5416666666667 19.7916666666667  C 13.8237847222222 19.7916666666667  14.0679253472222 19.6885850694444  14.2740885416667 19.482421875  C 14.4802517361111 19.2762586805556  14.5833333333333 19.0321180555556  14.5833333333333 18.75  L 14.5833333333333 14.5833333333333  L 18.75 14.5833333333333  C 19.0321180555556 14.5833333333333  19.2762586805556 14.4802517361111  19.482421875 14.2740885416667  Z M 23.3235677083333 6.2255859375  C 24.4411892361111 8.14073350694444  25 10.2322048611111  25 12.5  C 25 14.7677951388889  24.4411892361111 16.8592664930556  23.3235677083333 18.7744140625  C 22.2059461805556 20.6895616319444  20.6895616319444 22.2059461805556  18.7744140625 23.3235677083333  C 16.8592664930556 24.4411892361111  14.7677951388889 25  12.5 25  C 10.2322048611111 25  8.14073350694444 24.4411892361111  6.2255859375 23.3235677083333  C 4.31043836805556 22.2059461805556  2.79405381944444 20.6895616319444  1.67643229166667 18.7744140625  C 0.558810763888889 16.8592664930556  0 14.7677951388889  0 12.5  C 0 10.2322048611111  0.558810763888889 8.14073350694444  1.67643229166667 6.2255859375  C 2.79405381944444 4.31043836805556  4.31043836805556 2.79405381944444  6.2255859375 1.67643229166667  C 8.14073350694444 0.558810763888887  10.2322048611111 0  12.5 0  C 14.7677951388889 0  16.8592664930556 0.558810763888887  18.7744140625 1.67643229166667  C 20.6895616319444 2.79405381944444  22.2059461805556 4.31043836805556  23.3235677083333 6.2255859375  Z " fill-rule="nonzero" fill="#555555" stroke="none" transform="matrix(1 0 0 1 544 408 )" />
  </g>
</svg>