<?xml version="1.0" encoding="utf-8"?>
<svg version="1.1" xmlns:xlink="http://www.w3.org/1999/xlink" width="40px" height="34px" xmlns="http://www.w3.org/2000/svg">
  <g transform="matrix(1 0 0 1 -370 -408 )">
    <path d="M 14.2857142857143 3  L 14.2857142857143 6  L 25.7142857142857 6  L 25.7142857142857 3  L 14.2857142857143 3  Z M 25 19.8333333333333  L 40 19.8333333333333  L 40 30.4583333333333  C 40 31.4322916666667  39.6502976190476 32.2660590277778  38.9508928571429 32.9596354166667  C 38.2514880952381 33.6532118055556  37.4107142857143 34  36.4285714285714 34  L 3.57142857142857 34  C 2.58928571428571 34  1.7485119047619 33.6532118055556  1.04910714285714 32.9596354166667  C 0.349702380952381 32.2660590277778  0 31.4322916666667  0 30.4583333333333  L 0 19.8333333333333  L 15 19.8333333333333  L 15 23.375  C 15 23.7586805555556  15.141369047619 24.0907118055556  15.4241071428571 24.37109375  C 15.7068452380952 24.6514756944444  16.0416666666667 24.7916666666667  16.4285714285714 24.7916666666667  L 23.5714285714286 24.7916666666667  C 23.9583333333333 24.7916666666667  24.2931547619048 24.6514756944444  24.5758928571429 24.37109375  C 24.858630952381 24.0907118055556  25 23.7586805555556  25 23.375  L 25 19.8333333333333  Z M 17.1428571428571 19.8333333333333  L 22.8571428571429 19.8333333333333  L 22.8571428571429 22.6666666666667  L 17.1428571428571 22.6666666666667  L 17.1428571428571 19.8333333333333  Z M 38.9508928571429 6.70703125  C 39.6502976190476 7.40060763888889  40 8.234375  40 9.20833333333333  L 40 17.7083333333333  L 0 17.7083333333333  L 0 9.20833333333333  C 0 8.234375  0.349702380952381 7.40060763888889  1.04910714285714 6.70703125  C 1.7485119047619 6.01345486111111  2.58928571428571 5.66666666666667  3.57142857142857 5.66666666666667  L 11.4285714285714 5.66666666666667  L 11.4285714285714 2.125  C 11.4285714285714 1.53472222222222  11.6369047619048 1.03298611111111  12.0535714285714 0.619791666666665  C 12.4702380952381 0.206597222222224  12.9761904761905 0  13.5714285714286 0  L 26.4285714285714 0  C 27.0238095238095 0  27.5297619047619 0.206597222222224  27.9464285714286 0.619791666666665  C 28.3630952380952 1.03298611111111  28.5714285714286 1.53472222222222  28.5714285714286 2.125  L 28.5714285714286 5.66666666666667  L 36.4285714285714 5.66666666666667  C 37.4107142857143 5.66666666666667  38.2514880952381 6.01345486111111  38.9508928571429 6.70703125  Z " fill-rule="nonzero" fill="#0000ff" stroke="none" transform="matrix(1 0 0 1 370 408 )" />
  </g>
</svg>